<?xml version="1.0" encoding="UTF-8" standalone="no"?>
<!DOCTYPE svg PUBLIC "-//W3C//DTD SVG 20010904//EN"
              "http://www.w3.org/TR/2001/REC-SVG-20010904/DTD/svg10.dtd">

<svg xmlns="http://www.w3.org/2000/svg"
     width="56.4374mm" height="57.1429mm"
     viewBox="0 0 160 162">
  <path id="Selection"
        fill="none" stroke="black" stroke-width="7"
        d="M 15.00,56.00
           C 12.07,55.31 3.61,52.84 2.04,50.35
             0.51,47.95 2.85,43.39 3.80,41.00
             3.80,41.00 12.60,19.00 12.60,19.00
             14.87,13.34 17.64,1.07 25.00,1.31
             27.74,1.41 34.17,4.27 37.00,5.40
             37.00,5.40 60.00,14.60 60.00,14.60
             62.63,15.65 69.34,17.67 70.33,20.39
             71.27,22.96 66.61,34.55 64.93,36.72
             60.28,43.17 57.20,31.60 50.11,36.72
             48.96,37.42 47.87,38.69 47.36,40.02
             44.57,47.39 54.14,48.95 59.00,49.00
             58.48,54.73 56.60,58.75 54.40,64.00
             53.48,66.18 52.52,69.17 49.79,69.50
             47.67,69.75 38.70,65.93 36.00,65.00
             33.24,79.49 17.92,79.40 13.55,68.99
             11.53,64.20 13.27,60.51 15.00,56.00 Z
           M 66.00,22.00
           C 66.00,22.00 35.00,9.40 35.00,9.40
             32.04,8.22 26.38,5.32 23.39,7.06
             20.70,8.63 18.43,16.01 17.32,19.00
             17.32,19.00 6.00,48.00 6.00,48.00
             8.67,49.24 19.82,53.12 20.67,55.33
             21.56,57.65 18.23,59.39 17.47,63.01
             16.42,68.03 20.93,72.64 25.98,71.53
             32.79,70.02 29.70,63.11 32.60,60.78
             35.22,58.68 45.77,63.88 49.00,65.00
             49.00,65.00 53.00,54.00 53.00,54.00
             49.01,52.02 45.30,50.22 43.18,46.00
             39.92,39.51 45.35,31.85 52.00,30.65
             55.40,30.03 58.90,31.77 62.00,33.00
             62.00,33.00 66.00,22.00 66.00,22.00 Z
           M 90.00,48.00
           C 90.00,48.00 90.00,33.00 90.00,33.00
             90.04,31.05 89.90,28.37 91.60,27.02
             93.19,25.77 97.01,26.00 99.00,26.00
             99.00,26.00 139.00,26.00 139.00,26.00
             143.69,26.00 151.81,25.34 155.66,28.09
             159.37,30.74 158.99,34.96 158.90,39.00
             158.90,39.00 158.90,131.00 158.90,131.00
             158.90,131.00 158.90,154.00 158.90,154.00
             158.19,155.93 157.40,157.21 155.85,158.49
             152.52,161.25 148.06,160.99 144.00,161.00
             144.00,161.00 53.00,161.00 53.00,161.00
             45.77,161.00 30.08,163.18 26.17,155.95
             24.79,153.39 25.00,149.84 25.00,147.00
             25.00,147.00 25.00,100.00 25.00,100.00
             25.01,93.26 24.51,91.14 32.00,91.00
             32.00,91.00 44.00,91.00 44.00,91.00
             46.01,91.00 50.67,90.63 51.85,92.60
             53.01,94.55 50.96,97.30 50.43,100.00
             49.30,105.70 54.11,111.73 60.00,111.45
             65.62,111.18 69.52,105.35 68.71,100.00
             68.28,97.09 66.35,94.58 67.82,92.60
             69.16,90.80 72.99,91.01 75.00,91.00
             75.00,91.00 90.00,91.00 90.00,91.00
             90.00,91.00 90.00,75.00 90.00,75.00
             84.97,75.00 79.31,75.67 75.04,72.49
             66.91,66.43 67.33,54.34 76.02,49.01
             80.46,46.28 85.20,46.83 90.00,48.00 Z
           M 155.00,91.00
           C 155.00,91.00 155.00,39.00 155.00,39.00
             154.85,30.85 152.22,31.01 145.00,31.00
             145.00,31.00 94.00,31.00 94.00,31.00
             94.00,31.00 94.00,54.00 94.00,54.00
             89.72,53.05 85.40,50.38 81.00,51.66
             72.46,54.15 72.04,65.09 78.11,69.15
             83.67,72.87 88.48,69.30 94.00,68.00
             94.00,68.00 94.00,91.00 94.00,91.00
             94.00,91.00 111.00,91.00 111.00,91.00
             110.54,87.53 109.67,84.40 111.00,81.00
             115.68,69.13 129.12,67.48 136.30,78.02
             139.47,82.67 138.66,85.87 138.00,91.00
             138.00,91.00 155.00,91.00 155.00,91.00 Z
           M 155.00,96.00
           C 155.00,96.00 139.00,96.00 139.00,96.00
             137.21,95.96 134.03,96.06 132.87,94.40
             131.57,92.55 133.34,90.07 133.78,87.00
             134.75,80.15 130.26,74.25 123.00,75.38
             117.00,76.31 114.42,81.34 115.22,87.00
             115.66,90.07 117.43,92.55 116.13,94.40
             114.86,96.21 110.97,95.99 109.00,96.00
             109.00,96.00 94.00,96.00 94.00,96.00
             94.00,96.00 94.00,112.00 94.00,112.00
             99.22,111.93 103.50,111.04 107.98,114.43
             122.19,125.17 111.44,142.99 95.00,139.00
             95.00,139.00 94.00,156.00 94.00,156.00
             94.00,156.00 146.00,156.00 146.00,156.00
             155.19,155.94 154.99,153.42 155.00,145.00
             155.00,145.00 155.00,96.00 155.00,96.00 Z
           M 46.00,96.00
           C 46.00,96.00 30.00,96.00 30.00,96.00
             30.00,96.00 30.00,148.00 30.00,148.00
             30.06,156.13 31.27,155.98 39.00,156.00
             39.00,156.00 90.00,156.00 90.00,156.00
             90.00,156.00 91.00,132.00 91.00,132.00
             94.40,133.78 97.97,136.26 102.00,135.57
             108.69,134.41 112.02,126.96 108.83,121.05
             106.70,117.12 102.23,115.63 98.00,116.42
             95.84,116.82 93.35,118.36 91.60,117.13
             89.79,115.86 90.01,111.97 90.00,110.00
             90.00,110.00 90.00,96.00 90.00,96.00
             90.00,96.00 73.00,96.00 73.00,96.00
             73.60,100.65 74.43,103.62 71.91,108.00
             66.65,117.17 55.13,118.86 48.65,109.96
             45.47,105.60 46.00,101.07 46.00,96.00 Z" />
</svg>
