<?xml version="1.0" encoding="UTF-8" standalone="no"?>
<!DOCTYPE svg PUBLIC "-//W3C//DTD SVG 20010904//EN"
              "http://www.w3.org/TR/2001/REC-SVG-20010904/DTD/svg10.dtd">

<svg xmlns="http://www.w3.org/2000/svg"
     width="93.2663mm" height="91.8111mm"
     viewBox="0 0 705 694">
  <path id="Selection"
        fill="#63acc0" stroke="#63acc0" stroke-width="2"
        d="M 46.00,159.00
           C 41.99,146.98 37.96,134.46 35.61,122.00
             31.33,99.30 31.32,63.85 39.09,42.00
             41.60,34.94 46.68,26.10 51.04,20.00
             63.58,2.45 86.10,-5.26 105.00,7.36
             109.82,10.58 112.86,13.55 115.07,19.00
             117.07,23.93 117.06,27.81 117.00,33.00
             116.76,53.47 102.06,63.20 93.02,58.69
             86.93,55.64 81.53,43.55 83.99,37.00
             86.10,31.39 90.75,28.01 92.86,24.00
             95.55,18.90 94.10,11.89 87.98,10.18
             86.62,9.96 83.47,9.97 82.00,10.18
             61.91,10.97 48.65,36.64 45.20,54.00
             38.06,89.93 42.61,115.86 54.00,150.00
             59.52,166.54 66.37,182.84 75.00,198.00
             72.11,183.60 69.65,167.37 74.22,153.00
             75.41,149.26 77.99,144.26 81.30,142.17
             83.26,140.68 86.44,139.79 87.92,142.17
             89.94,145.79 85.03,148.74 82.53,153.01
             79.27,158.59 78.08,168.55 78.00,175.00
             77.66,205.69 98.32,235.98 110.69,263.00
             110.69,263.00 124.00,300.00 124.00,300.00
             124.00,300.00 124.91,287.00 124.91,287.00
             125.41,278.19 117.86,259.74 115.80,249.00
             113.74,238.19 116.25,225.60 118.89,215.00
             120.48,208.63 122.53,194.43 128.00,191.00
             128.00,214.37 137.78,231.56 138.00,250.00
             138.13,261.65 138.25,267.68 134.31,279.00
             131.05,288.35 124.41,300.83 125.18,311.00
             125.18,311.00 128.84,335.00 128.84,335.00
             129.69,342.94 129.47,354.08 132.00,361.00
             133.42,351.93 138.42,343.16 144.02,336.00
             145.84,333.66 149.15,329.34 151.99,328.40
             155.52,327.22 158.15,330.55 156.72,333.84
             156.72,333.84 144.10,349.00 144.10,349.00
             136.73,360.28 130.35,381.52 130.01,395.00
             128.84,442.88 110.29,498.98 91.99,543.00
             82.46,565.91 74.92,581.45 67.86,606.00
             65.82,613.10 62.32,620.64 62.00,628.00
             75.06,597.24 94.85,585.39 106.57,558.00
             119.43,527.95 108.82,522.95 120.00,490.00
             122.27,493.43 122.38,496.11 123.81,500.00
             126.23,506.56 128.93,513.91 128.92,521.00
             128.92,532.62 123.19,541.29 118.00,551.00
             133.27,537.89 138.59,538.44 157.00,520.00
             163.04,513.95 166.33,510.76 170.24,503.00
             173.68,496.16 177.80,485.67 175.45,478.00
             174.40,474.55 171.76,471.03 168.00,470.42
             165.05,469.93 160.87,472.45 159.63,469.53
             157.22,463.85 166.67,462.85 170.00,463.04
             180.75,463.65 183.19,474.10 182.99,483.00
             182.73,494.03 176.75,507.25 170.24,516.00
             152.82,539.42 133.06,542.91 114.02,559.08
             107.28,564.80 105.21,570.71 100.56,578.00
             96.92,583.72 90.37,591.62 85.92,597.00
             78.62,605.83 70.51,616.52 65.86,627.00
             63.87,631.49 61.49,636.04 62.00,641.00
             64.86,625.26 80.16,614.31 89.33,602.00
             92.78,597.37 93.90,590.04 100.00,589.00
             99.27,602.14 87.68,610.67 79.04,619.09
             72.58,625.38 67.56,632.75 64.00,641.00
             69.17,637.51 74.60,633.58 78.83,628.99
             85.57,621.68 90.58,612.86 98.00,606.17
             100.11,604.27 104.31,600.92 106.98,600.06
             110.33,598.98 111.79,600.75 110.83,602.59
             110.83,602.59 98.00,613.00 98.00,613.00
             81.07,629.74 90.88,624.27 68.00,642.00
             89.48,632.42 102.52,615.77 119.00,600.04
             130.27,589.27 133.75,591.79 142.55,577.00
             142.55,577.00 153.26,554.00 153.26,554.00
             161.89,536.18 173.86,518.83 192.00,509.76
             198.52,506.50 205.61,503.72 213.00,504.04
             221.53,504.41 228.97,508.61 228.97,518.00
             228.97,520.81 228.58,524.43 225.79,525.92
             219.60,529.23 223.06,519.06 220.26,515.21
             217.31,511.16 211.58,510.57 207.00,511.32
             203.06,511.97 198.56,513.98 195.00,515.76
             171.33,527.60 159.30,555.00 147.00,577.00
             156.79,568.59 167.72,562.16 181.00,562.18
             185.01,562.18 192.87,564.28 197.00,565.26
             201.43,566.30 203.76,565.84 208.00,568.00
             208.00,568.00 189.00,575.11 189.00,575.11
             169.95,579.89 167.51,576.07 146.00,586.32
             128.24,594.78 111.42,613.54 97.00,626.91
             97.00,626.91 77.00,642.00 77.00,642.00
             77.00,642.00 127.00,619.22 127.00,619.22
             127.00,619.22 171.00,594.31 171.00,594.31
             188.69,584.74 207.33,575.92 226.00,568.45
             244.42,561.08 266.67,554.47 286.00,549.88
             299.57,546.67 306.96,547.23 321.00,541.55
             329.28,538.20 339.36,532.76 346.00,526.83
             348.54,524.56 357.47,514.21 359.18,513.85
             360.32,513.28 361.65,513.38 362.67,513.85
             366.58,516.57 362.34,521.65 360.38,523.91
             350.73,535.07 341.02,537.62 335.00,543.00
             347.52,541.35 360.37,541.86 373.00,542.17
             377.99,542.06 382.02,543.36 387.00,542.17
             401.59,539.30 408.13,532.65 421.00,527.61
             431.69,523.44 440.73,522.87 452.00,523.00
             452.00,523.00 474.00,525.84 474.00,525.84
             474.00,525.84 504.00,527.00 504.00,527.00
             499.12,532.54 492.67,533.66 486.00,536.19
             475.52,540.17 463.27,544.86 452.00,545.00
             430.76,545.24 417.05,535.05 396.00,544.00
             427.58,546.56 451.62,560.04 481.00,568.42
             491.96,571.55 504.54,575.25 516.00,574.99
             523.84,574.81 537.32,572.57 544.00,568.52
             551.07,564.24 551.79,559.13 555.89,560.65
             557.06,561.08 557.89,561.93 558.19,563.15
             559.47,568.30 551.79,573.29 548.00,575.19
             539.75,579.32 525.25,581.04 516.00,581.00
             511.17,580.98 507.64,579.89 503.00,581.00
             503.00,581.00 515.00,585.00 515.00,585.00
             515.00,585.00 538.00,592.12 538.00,592.12
             575.51,601.97 608.16,605.56 646.00,594.28
             662.80,589.27 690.41,572.37 688.67,552.00
             687.99,544.05 683.88,537.33 675.00,541.57
             669.64,544.13 668.24,548.83 663.00,551.99
             656.08,556.16 641.06,552.11 638.07,544.96
             636.67,541.83 636.98,538.13 638.07,535.00
             642.52,523.04 657.45,518.73 669.00,519.01
             689.09,519.50 700.85,543.03 696.24,561.00
             692.27,576.49 680.96,586.06 668.00,594.31
             649.95,605.79 614.37,611.25 593.00,611.00
             593.00,611.00 577.00,609.83 577.00,609.83
             577.00,609.83 545.00,605.00 545.00,605.00
             555.16,609.37 577.89,619.82 588.00,620.83
             615.78,623.61 619.73,614.71 645.00,615.00
             645.00,615.00 665.00,616.29 665.00,616.29
             665.00,616.29 686.00,619.00 686.00,619.00
             686.00,619.00 703.00,619.00 703.00,619.00
             698.98,621.61 683.37,626.87 678.00,628.67
             650.32,637.92 630.67,641.82 602.00,633.28
             588.26,629.18 583.98,625.06 572.00,619.26
             572.00,619.26 552.00,611.00 552.00,611.00
             558.19,617.56 564.35,627.75 564.91,637.00
             565.10,640.28 564.22,648.36 559.11,647.04
             554.04,645.72 559.23,640.62 557.72,633.00
             555.95,624.03 548.65,614.18 542.00,608.17
             531.25,598.45 520.31,597.60 507.00,592.58
             507.00,592.58 454.00,569.86 454.00,569.86
             446.28,566.45 428.94,557.97 421.00,559.00
             429.06,561.30 443.52,569.17 448.35,576.00
             450.22,578.64 452.37,583.67 451.65,586.94
             451.19,589.00 449.55,590.90 447.28,589.83
             444.85,588.68 444.40,584.28 443.35,582.00
             441.74,578.48 439.04,576.04 436.00,573.76
             431.03,570.05 425.51,567.51 420.00,564.75
             402.08,555.79 386.35,550.03 366.00,550.00
             366.00,550.00 339.00,550.00 339.00,550.00
             325.89,550.02 297.23,554.50 284.00,557.42
             243.14,566.45 203.69,583.47 167.00,603.31
             167.00,603.31 143.00,616.69 143.00,616.69
             143.00,616.69 115.00,630.40 115.00,630.40
             108.19,633.18 94.48,638.25 89.00,642.00
             89.00,642.00 106.00,637.66 106.00,637.66
             127.61,630.76 146.71,622.28 170.00,622.00
             186.61,621.81 190.78,617.87 206.00,613.42
             227.91,607.02 249.10,600.59 272.00,598.91
             272.00,598.91 282.00,598.00 282.00,598.00
             286.32,597.95 291.99,598.24 296.00,596.49
             300.54,594.51 306.68,586.87 311.00,583.33
             315.79,579.40 323.05,576.74 329.00,575.08
             335.33,573.23 339.70,574.25 346.00,575.08
             357.18,576.70 374.40,580.88 384.00,586.60
             387.55,588.72 396.36,593.92 397.26,598.01
             398.30,602.78 389.49,609.29 386.00,611.64
             372.06,621.06 360.31,628.19 343.00,628.00
             330.05,627.85 319.30,622.04 309.00,614.70
             300.37,608.55 297.76,602.78 287.00,603.01
             287.00,603.01 278.00,604.04 278.00,604.04
             278.00,604.04 269.00,604.04 269.00,604.04
             252.84,605.71 239.63,608.97 224.00,612.87
             224.00,612.87 192.00,621.00 192.00,621.00
             192.00,621.00 192.00,623.00 192.00,623.00
             192.00,623.00 212.00,624.54 212.00,624.54
             212.00,624.54 227.00,621.17 227.00,621.17
             244.76,619.39 247.77,620.19 265.00,622.73
             265.00,622.73 279.00,625.00 279.00,625.00
             279.00,625.00 274.00,628.00 274.00,628.00
             272.77,625.30 264.09,625.52 261.00,625.15
             249.27,623.75 232.14,622.93 221.00,627.00
             221.00,627.00 243.00,628.00 243.00,628.00
             243.00,628.00 227.00,630.00 227.00,630.00
             236.25,631.23 242.26,632.88 252.00,631.72
             256.92,631.13 269.24,627.95 273.00,629.00
             261.32,633.67 252.94,636.80 240.00,635.91
             240.00,635.91 188.00,625.92 188.00,625.92
             188.00,625.92 182.00,625.35 182.00,625.35
             178.68,625.44 171.47,628.18 168.00,629.33
             168.00,629.33 137.00,639.34 137.00,639.34
             125.12,641.99 97.24,644.94 85.00,645.00
             73.95,645.05 71.77,647.59 62.00,651.00
             62.00,651.00 62.00,653.00 62.00,653.00
             72.07,656.70 78.85,662.60 91.00,661.91
             101.51,661.31 112.90,659.00 121.96,666.39
             127.02,670.52 130.36,677.42 128.57,684.00
             126.79,690.55 118.27,695.22 112.06,691.83
             109.48,690.42 106.65,686.07 110.32,684.14
             112.88,682.82 115.69,685.65 118.76,684.14
             124.95,681.06 115.97,672.84 113.00,670.99
             107.09,667.31 99.74,667.03 93.00,667.00
             83.24,666.95 74.41,664.00 66.00,659.12
             66.00,659.12 60.00,655.59 60.00,655.59
             55.89,653.76 53.94,656.99 51.36,655.59
             47.90,654.09 52.32,650.57 49.57,646.00
             44.83,638.11 40.99,637.76 36.52,624.00
             33.35,614.25 35.17,598.73 23.96,591.11
             23.96,591.11 21.00,589.37 21.00,589.37
             19.50,588.86 17.83,588.45 16.32,589.37
             11.22,592.07 19.99,599.24 13.85,601.34
             9.32,602.90 4.84,596.86 6.56,590.00
             10.28,575.20 27.47,579.46 34.36,589.00
             41.19,598.46 38.94,607.75 40.18,618.00
             41.25,626.81 47.03,638.55 54.00,644.00
             58.82,625.88 57.03,626.27 57.00,608.00
             57.00,608.00 56.00,593.00 56.00,593.00
             55.84,579.21 57.21,565.51 60.00,552.00
             60.00,552.00 65.82,525.00 65.82,525.00
             66.16,520.48 64.43,514.49 63.42,510.00
             58.27,486.99 44.76,469.72 48.92,445.00
             49.70,440.38 50.53,436.04 53.00,432.00
             52.22,449.06 49.75,461.44 57.00,478.00
             57.00,478.00 58.00,464.00 58.00,464.00
             58.00,471.03 57.95,476.46 61.00,483.00
             61.00,483.00 59.57,454.00 59.57,454.00
             59.57,454.00 54.00,426.00 54.00,426.00
             57.79,428.93 59.59,440.10 60.88,445.00
             63.30,454.17 64.95,463.48 65.00,473.00
             65.08,489.47 61.45,485.70 65.53,502.00
             66.67,506.58 66.53,507.69 69.00,512.00
             69.00,512.00 72.73,485.00 72.73,485.00
             76.07,461.83 78.42,443.55 76.17,420.00
             76.17,420.00 75.52,411.00 75.52,411.00
             74.14,404.67 70.30,403.12 66.09,398.91
             66.09,398.91 59.13,391.00 59.13,391.00
             49.61,379.78 45.45,370.63 44.51,356.00
             43.77,344.38 48.09,336.03 52.69,326.00
             52.69,326.00 57.88,315.00 57.88,315.00
             59.76,311.75 64.59,303.78 69.01,304.74
             72.81,305.58 79.47,313.79 81.84,317.00
             89.91,327.93 99.91,354.28 99.25,368.00
             98.89,375.52 96.44,383.73 92.25,390.00
             92.25,390.00 81.97,404.00 81.97,404.00
             79.87,408.79 81.93,416.64 81.97,422.00
             82.31,448.89 81.39,458.51 76.92,485.00
             76.92,485.00 69.95,522.00 69.95,522.00
             69.95,522.00 71.00,541.00 71.00,541.00
             71.21,559.21 67.74,572.53 64.00,590.00
             62.39,597.55 58.96,608.57 61.00,616.00
             67.00,586.25 79.78,559.02 90.80,531.00
             102.89,500.24 112.94,468.64 118.41,436.00
             120.17,425.55 122.88,410.35 123.00,400.00
             123.00,400.00 124.00,372.00 124.00,372.00
             124.00,372.00 123.04,361.00 123.04,361.00
             121.80,332.74 118.59,310.80 103.99,286.00
             99.32,278.06 89.72,262.73 82.00,258.23
             77.66,255.70 68.82,256.10 71.17,251.15
             73.09,247.37 81.09,249.54 84.00,251.15
             93.87,255.93 99.68,268.35 106.00,277.00
             103.17,266.99 94.87,253.12 89.40,244.00
             89.40,244.00 66.31,204.00 66.31,204.00
             66.31,204.00 55.31,182.00 55.31,182.00
             52.45,175.77 51.87,172.29 46.95,167.00
             39.01,158.48 28.82,150.94 17.00,149.08
             8.73,148.15 3.10,154.33 1.82,149.08
             0.61,143.69 7.69,143.04 11.00,143.00
             20.86,142.88 30.01,146.29 38.00,152.00
             38.00,152.00 26.91,132.00 26.91,132.00
             21.59,123.74 18.05,120.82 13.26,111.00
             -0.39,83.00 -0.18,63.88 5.80,34.00
             7.12,27.38 10.34,8.57 14.00,4.00
             14.39,21.97 17.96,28.91 21.34,45.00
             21.34,45.00 24.08,66.00 24.08,66.00
             24.33,69.05 24.91,70.86 24.68,74.00
             24.68,74.00 22.09,103.00 22.09,103.00
             22.09,103.00 25.84,123.00 25.84,123.00
             28.10,129.69 41.44,153.04 46.00,159.00 Z
           M 13.00,24.00
           C 11.49,27.76 10.50,41.07 9.95,46.00
             9.95,46.00 8.04,64.00 8.04,64.00
             7.60,73.99 10.85,95.60 16.00,104.00
             15.77,93.65 12.21,79.81 15.00,70.00
             15.00,77.36 15.64,98.22 19.00,104.00
             19.00,104.00 21.00,71.00 21.00,71.00
             20.97,51.57 15.31,40.37 13.00,24.00 Z
           M 17.00,104.00
           C 17.00,104.00 16.00,104.00 16.00,104.00
             16.00,104.00 17.00,105.00 17.00,105.00
             17.00,105.00 17.00,104.00 17.00,104.00 Z
           M 126.00,202.00
           C 123.05,205.84 121.78,214.09 120.65,219.00
             116.53,236.96 116.63,247.45 122.33,265.00
             123.73,269.31 124.24,274.40 127.00,278.00
             127.00,278.00 128.00,247.00 128.00,247.00
             128.00,247.00 128.00,236.00 128.00,236.00
             128.00,236.00 131.00,262.00 131.00,262.00
             131.00,262.00 129.00,283.00 129.00,283.00
             134.93,265.20 135.49,249.53 132.56,231.00
             132.56,231.00 126.00,202.00 126.00,202.00 Z
           M 69.00,307.00
           C 69.00,307.00 70.42,321.00 70.42,321.00
             70.42,321.00 80.33,352.00 80.33,352.00
             80.33,352.00 85.00,370.00 85.00,370.00
             86.78,362.12 87.96,361.72 88.00,353.00
             88.08,335.95 82.61,318.26 69.00,307.00 Z
           M 65.00,311.00
           C 60.89,315.05 59.20,319.64 57.34,325.00
             51.03,343.26 54.07,363.61 69.00,377.00
             67.06,364.47 62.07,355.87 62.00,341.00
             61.92,322.99 62.87,326.82 65.00,311.00 Z
           M 67.00,313.00
           C 63.64,318.20 64.99,326.11 65.72,332.00
             67.53,346.71 68.45,352.54 72.58,367.00
             73.84,371.41 75.80,379.29 78.00,383.00
             86.27,360.36 67.21,336.27 67.00,313.00 Z
           M 50.12,351.00
           C 48.15,355.67 49.07,361.22 50.12,366.00
             52.92,376.99 64.96,394.47 74.00,401.00
             73.89,389.57 67.52,385.72 61.16,377.00
             55.31,368.99 51.39,360.87 50.12,351.00 Z
           M 94.00,356.00
           C 91.89,359.23 90.08,369.12 88.31,374.00
             85.76,380.99 79.90,388.58 80.00,396.00
             88.71,388.79 94.92,376.43 94.92,365.00
             94.92,365.00 94.00,356.00 94.00,356.00 Z
           M 119.00,499.00
           C 114.66,506.46 116.10,524.92 116.00,534.00
             115.95,538.00 114.61,542.20 116.00,546.00
             116.00,546.00 119.00,537.00 119.00,537.00
             119.00,537.00 117.00,549.00 117.00,549.00
             128.12,529.47 127.08,519.20 119.00,499.00 Z
           M 493.00,530.00
           C 493.00,530.00 464.00,526.17 464.00,526.17
             459.06,525.69 440.15,527.05 435.00,527.92
             427.81,529.13 417.24,531.82 412.00,537.00
             412.00,537.00 423.00,533.24 423.00,533.24
             433.81,530.57 450.26,529.72 461.00,533.24
             448.73,533.00 442.44,532.62 430.00,534.59
             425.00,535.38 420.96,535.62 417.00,539.00
             417.00,539.00 450.00,542.96 450.00,542.96
             459.65,542.59 468.95,539.38 478.00,536.33
             482.61,534.78 489.13,532.77 493.00,530.00 Z
           M 67.00,536.00
           C 64.59,540.06 63.77,545.41 62.63,550.00
             60.19,559.78 58.02,570.93 58.00,581.00
             57.99,586.63 57.18,600.42 59.00,605.00
             61.62,585.56 71.64,555.08 67.00,536.00 Z
           M 115.00,546.00
           C 115.00,546.00 114.00,546.00 114.00,546.00
             114.00,546.00 115.00,547.00 115.00,547.00
             115.00,547.00 115.00,546.00 115.00,546.00 Z
           M 198.00,570.00
           C 183.75,565.34 173.91,563.80 160.00,570.76
             156.08,572.72 154.04,573.76 151.00,577.00
             151.00,577.00 161.00,575.00 161.00,575.00
             161.00,575.00 153.00,579.00 153.00,579.00
             153.00,579.00 175.00,575.17 175.00,575.17
             182.96,574.41 191.10,574.93 198.00,570.00 Z
           M 343.00,579.16
           C 343.00,579.16 332.00,579.16 332.00,579.16
             321.23,581.12 311.25,588.27 305.00,597.00
             311.02,596.95 323.41,587.87 330.00,584.78
             334.30,582.77 339.37,581.92 343.00,579.16 Z
           M 395.00,599.00
           C 390.98,593.90 387.67,592.55 382.00,589.88
             368.11,582.91 344.20,580.45 331.00,589.88
             353.21,590.20 369.34,599.00 395.00,599.00 Z
           M 390.00,601.00
           C 390.00,601.00 383.00,601.00 383.00,601.00
             383.00,601.00 335.00,594.01 335.00,594.01
             329.88,594.13 321.27,594.73 318.00,599.00
             318.00,599.00 343.00,602.72 343.00,602.72
             353.70,604.08 364.23,604.12 375.00,604.00
             379.80,603.94 385.93,603.64 390.00,601.00 Z
           M 353.00,622.00
           C 342.35,621.77 334.14,618.34 325.00,613.13
             315.92,607.95 312.08,603.25 301.00,603.00
             303.48,607.44 307.74,609.58 312.00,612.19
             321.94,618.28 341.52,628.67 353.00,622.00 Z
           M 391.00,603.00
           C 391.00,603.00 373.00,607.55 373.00,607.55
             373.00,607.55 349.00,609.00 349.00,609.00
             349.00,609.00 326.00,607.00 326.00,607.00
             342.19,617.54 357.83,620.54 376.00,612.99
             381.74,610.60 386.94,607.79 391.00,603.00 Z
           M 682.00,622.00
           C 682.00,622.00 652.00,619.00 652.00,619.00
             630.75,618.97 634.54,618.64 614.00,623.35
             614.00,623.35 602.00,626.00 602.00,626.00
             602.00,626.00 636.00,627.00 636.00,627.00
             636.00,627.00 616.00,628.00 616.00,628.00
             616.00,628.00 602.00,629.00 602.00,629.00
             616.38,630.94 618.62,632.02 634.00,632.00
             643.79,631.98 654.48,629.25 664.00,626.87
             668.98,625.63 678.12,624.53 682.00,622.00 Z
           M 168.00,625.00
           C 168.00,625.00 148.00,627.43 148.00,627.43
             148.00,627.43 122.00,634.58 122.00,634.58
             122.00,634.58 100.00,642.00 100.00,642.00
             115.97,641.95 137.04,638.17 152.00,632.58
             156.55,630.87 165.13,628.75 168.00,625.00 Z
           M 602.00,627.00
           C 602.00,627.00 601.00,627.00 601.00,627.00
             601.00,627.00 602.00,628.00 602.00,628.00
             602.00,628.00 602.00,627.00 602.00,627.00 Z
           M 68.00,642.00
           C 68.00,642.00 63.00,644.00 63.00,644.00
             63.00,644.00 68.00,642.00 68.00,642.00 Z" />
</svg>
