<?xml version="1.0" encoding="UTF-8" standalone="no"?>
<!DOCTYPE svg PUBLIC "-//W3C//DTD SVG 20010904//EN"
              "http://www.w3.org/TR/2001/REC-SVG-20010904/DTD/svg10.dtd">

<svg xmlns="http://www.w3.org/2000/svg"
     width="56.0847mm" height="56.4374mm"
     viewBox="0 0 159 160">
  <path id="Selection"
        fill="none" stroke="black" stroke-width="5"
        d="M 66.88,77.00
           C 66.88,77.00 66.88,81.00 66.88,81.00
             66.88,81.00 66.88,86.00 66.88,86.00
             65.66,90.78 61.69,93.68 57.32,90.40
             54.28,88.11 51.24,81.06 47.82,78.60
             45.19,76.71 42.07,77.01 39.00,77.00
             33.72,76.99 13.64,77.49 10.00,76.35
             6.46,75.24 3.09,72.50 1.74,69.00
             0.87,66.75 1.00,63.43 1.00,61.00
             1.00,61.00 1.00,23.00 1.00,23.00
             1.00,18.01 0.24,10.28 3.01,6.10
             6.44,0.90 11.48,1.01 17.00,1.00
             17.00,1.00 102.00,1.00 102.00,1.00
             104.44,1.00 107.73,0.87 110.00,1.74
             120.84,5.90 118.00,22.53 118.00,32.00
             123.88,32.00 127.32,32.01 133.00,34.09
             156.96,42.89 166.52,72.77 152.91,94.00
             149.27,99.68 144.80,104.05 139.00,107.52
             134.95,109.95 129.02,110.50 128.09,115.93
             127.37,120.20 129.99,121.43 130.89,126.00
             130.89,126.00 130.89,142.00 130.89,142.00
             130.99,146.56 131.21,150.05 128.35,153.96
             123.76,160.23 114.51,160.76 109.42,154.87
             106.40,151.38 106.06,147.38 106.17,143.00
             106.17,143.00 106.17,126.00 106.17,126.00
             106.17,126.00 108.90,118.72 108.90,118.72
             110.17,110.79 102.13,109.93 97.00,106.73
             92.51,103.93 87.01,98.42 84.11,94.00
             79.62,87.17 79.71,80.99 77.28,78.60
             75.10,76.47 69.92,77.00 66.88,77.00 Z
           M 114.00,32.00
           C 114.00,32.00 114.00,16.00 114.00,16.00
             113.88,7.71 111.29,5.12 103.00,5.00
             103.00,5.00 43.00,5.00 43.00,5.00
             43.00,5.00 16.00,5.00 16.00,5.00
             12.80,5.02 9.78,4.85 7.31,7.31
             4.67,9.96 5.01,13.57 5.00,17.00
             5.00,17.00 5.00,55.00 5.00,55.00
             5.00,58.96 4.32,66.62 6.74,69.72
             9.57,73.36 14.88,72.99 19.00,73.00
             19.00,73.00 42.00,73.00 42.00,73.00
             44.37,73.00 47.61,72.78 49.68,74.02
             54.23,76.76 55.46,84.35 62.00,88.00
             62.00,88.00 62.00,73.00 62.00,73.00
             62.00,73.00 78.00,73.00 78.00,73.00
             78.13,58.30 82.94,59.14 83.00,47.00
             83.03,41.38 82.14,28.57 84.45,24.00
             89.42,14.21 102.03,12.42 108.00,28.00
             101.20,25.86 100.95,18.99 94.00,20.47
             84.55,22.50 87.00,37.68 87.00,45.00
             95.85,40.90 98.30,34.23 114.00,32.00 Z
           M 11.00,61.00
           C 11.00,61.00 11.00,33.00 11.00,33.00
             11.01,28.56 10.78,24.86 13.65,21.10
             18.86,14.27 29.16,14.64 33.59,22.09
             35.64,25.55 35.95,29.09 36.00,33.00
             36.00,33.00 36.00,61.00 36.00,61.00
             36.00,61.00 31.00,61.00 31.00,61.00
             31.00,61.00 31.00,46.00 31.00,46.00
             31.00,46.00 15.00,46.00 15.00,46.00
             15.00,46.00 15.00,61.00 15.00,61.00
             15.00,61.00 11.00,61.00 11.00,61.00 Z
           M 47.00,16.00
           C 56.32,16.00 71.09,14.53 71.51,28.00
             71.66,32.62 68.56,35.69 68.73,39.00
             68.89,42.31 76.12,51.06 66.89,58.57
             62.48,62.16 52.62,61.00 47.00,61.00
             47.00,61.00 47.00,16.00 47.00,16.00 Z
           M 31.00,42.00
           C 31.00,38.19 31.61,26.97 29.98,24.17
             27.06,19.05 19.37,19.29 16.45,24.17
             14.33,27.79 15.00,37.56 15.00,42.00
             15.00,42.00 31.00,42.00 31.00,42.00 Z
           M 51.00,37.00
           C 54.91,37.00 60.56,37.44 63.86,35.15
             68.79,31.71 68.22,24.05 62.94,21.17
             60.05,19.60 54.36,20.00 51.00,20.00
             51.00,20.00 51.00,37.00 51.00,37.00 Z
           M 112.00,36.30
           C 106.51,37.34 102.66,38.53 98.00,41.77
             69.29,61.77 81.04,106.81 117.00,108.91
             120.86,109.13 125.28,108.30 129.00,107.25
             159.73,98.63 164.58,56.03 137.00,40.36
             129.19,35.92 120.74,35.43 112.00,36.30 Z
           M 51.00,57.00
           C 54.30,57.00 61.08,57.45 63.78,55.83
             68.55,52.95 68.45,45.20 63.78,42.31
             60.86,40.51 54.50,41.00 51.00,41.00
             51.00,41.00 51.00,57.00 51.00,57.00 Z
           M 112.00,42.52
           C 115.04,42.04 116.93,41.94 120.00,42.01
             124.34,42.12 128.11,43.02 132.00,44.99
             156.82,57.58 153.62,93.75 127.00,101.25
             123.93,102.12 120.18,102.95 117.00,102.67
             88.48,100.21 78.00,66.49 100.00,48.33
             104.03,45.00 107.07,43.85 112.00,42.52 Z
           M 114.00,46.32
           C 106.44,48.02 100.38,51.16 96.21,58.00
             85.98,74.80 96.49,97.76 117.00,98.00
             122.33,98.06 126.10,98.15 131.00,95.60
             146.15,87.70 149.56,66.43 137.82,54.09
             131.15,47.08 123.30,45.31 114.00,46.32 Z
           M 102.00,76.19
           C 108.69,73.54 108.38,78.72 113.00,76.19
             115.14,75.29 123.56,66.34 126.00,64.02
             129.44,60.75 131.03,58.53 135.00,62.00
             135.00,62.00 119.00,78.00 119.00,78.00
             117.18,79.80 113.69,83.80 111.00,83.80
             107.63,83.80 103.78,78.48 102.00,76.19 Z
           M 124.00,113.00
           C 124.00,113.00 113.00,113.00 113.00,113.00
             113.78,122.32 122.05,118.57 122.98,117.40
             123.96,116.17 123.88,114.47 124.00,113.00 Z
           M 113.15,123.60
           C 109.82,125.92 110.08,127.04 110.00,131.00
             109.88,137.97 107.75,153.32 117.02,154.76
             129.39,156.68 127.02,140.53 127.00,133.00
             126.99,130.46 127.32,126.52 125.40,124.60
             122.98,122.18 116.21,122.90 113.15,123.60 Z" />
</svg>
