<?xml version="1.0" encoding="UTF-8" standalone="no"?>
<!DOCTYPE svg PUBLIC "-//W3C//DTD SVG 20010904//EN"
              "http://www.w3.org/TR/2001/REC-SVG-20010904/DTD/svg10.dtd">

<svg xmlns="http://www.w3.org/2000/svg"
     width="74.7795mm" height="74.7795mm"
     viewBox="0 0 212 212">
  <path id="Selection"
        fill="none" stroke="black" stroke-width="9"
        d="M 2.00,33.00
           C 0.13,22.56 0.91,13.90 10.04,6.93
             23.74,-3.53 46.52,0.10 47.90,20.00
             48.60,30.05 41.86,35.44 38.24,44.00
             36.29,49.53 37.00,53.39 38.24,59.00
             38.24,59.00 30.00,61.00 30.00,61.00
             28.79,54.24 28.15,48.53 30.88,42.00
             34.06,34.37 41.55,26.79 37.99,18.00
             33.34,6.50 19.24,6.70 12.51,16.02
             9.22,20.57 9.75,25.87 11.00,31.00
             11.00,31.00 2.00,33.00 2.00,33.00 Z
           M 100.00,10.21
           C 100.00,10.21 113.00,10.21 113.00,10.21
             124.97,10.02 136.90,12.81 148.00,17.20
             159.30,21.68 170.30,28.52 179.00,37.01
             187.68,45.48 194.01,53.23 199.68,64.00
             220.30,103.21 211.38,152.33 180.00,182.99
             172.03,190.78 162.14,197.20 152.00,201.82
             138.47,207.99 122.85,211.17 108.00,211.00
             65.93,210.51 25.60,180.74 14.15,140.00
             9.58,123.71 8.17,105.58 12.13,89.00
             13.07,85.05 14.78,73.63 19.98,73.63
             23.19,73.63 23.54,76.56 23.07,79.00
             21.34,87.92 18.12,94.12 18.00,104.00
             17.85,116.97 17.68,125.33 21.75,138.00
             33.42,174.37 68.19,202.54 107.00,203.00
             122.78,203.18 136.65,200.48 151.00,193.68
             181.57,179.19 202.60,145.75 203.00,112.00
             203.28,87.92 194.54,66.02 178.71,48.00
             153.98,19.84 113.81,11.19 79.00,23.34
             79.00,23.34 64.00,29.45 64.00,29.45
             60.68,30.05 57.94,28.08 59.17,25.19
             60.33,22.47 66.34,19.91 69.00,18.73
             79.94,13.87 88.35,12.18 100.00,10.21 Z
           M 78.00,41.52
           C 83.81,40.59 91.87,40.62 96.94,44.00
             99.13,45.46 102.02,48.86 99.38,51.35
             96.58,54.00 92.97,49.77 87.00,49.02
             81.17,48.30 76.56,49.66 72.00,53.34
             69.72,55.17 65.86,59.68 63.06,59.97
             57.69,60.53 60.09,54.26 61.72,52.01
             65.67,46.58 71.65,43.27 78.00,41.52 Z
           M 132.00,45.47
           C 141.00,44.22 149.27,46.85 155.91,53.18
             157.81,55.00 164.35,62.74 158.76,64.26
             154.10,65.52 150.36,56.99 142.00,53.97
             135.40,51.58 131.89,53.78 126.00,55.80
             124.05,56.47 121.30,57.05 120.17,54.69
             117.72,49.59 128.73,46.24 132.00,45.47 Z
           M 33.00,71.00
           C 33.00,71.00 43.00,69.00 43.00,69.00
             43.00,69.00 45.00,79.00 45.00,79.00
             45.00,79.00 35.00,81.00 35.00,81.00
             35.00,81.00 33.00,71.00 33.00,71.00 Z
           M 79.00,71.91
           C 89.71,73.10 91.51,87.59 88.78,96.00
             87.26,100.68 83.66,105.85 78.00,104.67
             73.48,103.72 71.05,99.08 69.93,95.00
             67.63,86.66 69.53,74.53 79.00,71.91 Z
           M 140.00,71.78
           C 151.06,72.38 152.75,87.55 150.20,96.00
             149.01,99.96 146.45,104.18 141.99,104.73
             136.33,105.43 133.18,100.82 131.79,96.00
             129.41,87.79 130.75,74.75 140.00,71.78 Z
           M 130.00,142.42
           C 133.43,142.01 146.90,140.67 148.34,144.30
             150.32,149.26 141.91,149.83 139.00,149.96
             124.10,150.62 108.67,153.23 96.00,161.75
             89.71,165.98 88.58,168.08 83.58,172.85
             82.19,174.17 80.38,175.82 78.31,174.83
             71.75,171.70 83.54,161.15 86.01,159.09
             98.80,148.47 114.00,144.84 130.00,142.42 Z" />
</svg>
