<?xml version="1.0" encoding="UTF-8" standalone="no"?>
<!DOCTYPE svg PUBLIC "-//W3C//DTD SVG 20010904//EN"
              "http://www.w3.org/TR/2001/REC-SVG-20010904/DTD/svg10.dtd">

<svg xmlns="http://www.w3.org/2000/svg"
     width="67.3721mm" height="67.7249mm"
     viewBox="0 0 191 192">
  <path id="Selection"
        fill="none" stroke="black" stroke-width="7"
        d="M 88.00,1.42
           C 98.52,0.14 110.77,2.00 121.00,4.63
             131.16,7.24 141.38,12.43 150.00,18.35
             188.67,44.90 201.47,98.58 179.68,140.00
             169.82,158.74 154.99,172.57 136.00,181.74
             123.61,187.73 107.75,191.15 94.00,191.00
             58.80,190.60 24.84,168.84 9.89,137.00
             2.05,120.30 0.79,108.04 1.00,90.00
             1.14,78.40 5.93,62.24 11.32,52.00
             22.68,30.41 42.69,13.22 66.00,5.75
             73.64,3.29 80.20,2.56 88.00,1.42 Z
           M 89.00,6.28
           C 89.00,6.28 73.00,8.89 73.00,8.89
             52.12,14.14 33.12,27.04 21.09,45.00
             -10.93,92.80 9.03,160.36 64.00,180.31
             72.87,183.52 84.56,185.89 94.00,186.00
             106.89,186.14 120.18,183.38 132.00,178.28
             142.15,173.90 151.17,167.82 159.00,160.00
             195.86,123.14 193.69,61.27 154.00,27.30
             144.43,19.11 133.96,13.73 122.00,10.02
             112.35,7.04 99.06,5.35 89.00,6.28 Z
           M 36.00,61.00
           C 41.99,57.84 47.11,59.65 55.00,56.54
             60.39,54.41 65.03,49.21 71.00,50.00
             69.73,52.67 69.23,53.63 66.94,55.67
             60.65,61.31 42.89,67.80 36.00,61.00 Z
           M 119.00,49.00
           C 125.96,50.06 127.95,53.92 135.00,56.25
             142.99,58.89 146.91,57.48 149.87,58.43
             152.57,59.30 152.58,60.56 153.00,62.91
             153.00,62.91 141.00,62.91 141.00,62.91
             133.05,61.97 120.46,57.83 119.00,49.00 Z
           M 59.00,67.65
           C 66.13,66.17 71.77,67.12 76.61,73.04
             83.07,80.95 79.74,93.81 70.00,97.15
             50.10,103.96 39.18,75.99 59.00,67.65 Z
           M 121.00,67.76
           C 124.52,66.95 127.57,66.67 131.00,67.76
             146.50,73.96 143.77,98.99 124.00,97.96
             107.45,97.10 103.31,73.21 121.00,67.76 Z
           M 54.00,79.00
           C 52.34,86.53 55.66,92.87 64.00,92.97
             66.41,92.99 68.85,92.70 70.87,91.26
             76.73,87.09 77.73,72.98 64.00,72.00
             64.69,73.44 65.80,75.38 65.88,77.00
             66.02,80.09 62.95,83.43 59.73,82.79
             57.73,82.40 55.53,80.30 54.00,79.00 Z
           M 125.00,72.00
           C 122.68,72.27 121.13,72.33 119.11,73.74
             117.00,75.20 115.50,77.54 114.84,80.00
             111.34,93.02 130.93,97.99 135.26,86.98
             136.14,84.77 135.99,81.40 136.00,79.00
             134.20,80.16 131.14,82.56 129.00,82.53
             122.76,82.44 123.60,75.86 125.00,72.00 Z
           M 72.00,140.00
           C 71.21,133.65 77.90,130.69 83.00,128.32
             93.08,123.66 101.10,128.08 110.00,133.15
             115.00,136.00 118.96,136.91 120.00,143.00
             110.16,141.65 100.59,130.96 91.00,131.38
             85.32,131.63 78.17,138.04 72.00,140.00 Z" />
</svg>
