<?xml version="1.0" encoding="UTF-8" standalone="no"?>
<!DOCTYPE svg PUBLIC "-//W3C//DTD SVG 20010904//EN"
              "http://www.w3.org/TR/2001/REC-SVG-20010904/DTD/svg10.dtd">

<svg xmlns="http://www.w3.org/2000/svg"
     width="77.2487mm" height="76.8959mm"
     viewBox="0 0 219 218">
  <path id="Selection"
        fill="none" stroke="black" stroke-width="7"
        d="M 38.00,65.00
           C 30.98,65.00 27.88,65.30 21.00,62.92
             2.75,56.60 -6.73,37.65 5.30,21.00
             14.14,8.77 31.95,0.17 47.00,0.00
             71.33,-0.27 91.29,14.34 91.00,40.00
             90.74,62.20 67.42,75.77 54.00,72.00
             54.00,72.00 66.00,82.00 66.00,82.00
             56.91,81.03 52.39,75.80 51.00,67.00
             51.00,67.00 54.00,72.00 54.00,72.00
             56.16,70.47 60.34,71.79 67.00,69.17
             79.83,64.13 88.75,54.02 89.82,40.00
             90.19,35.07 88.39,28.39 86.19,24.00
             72.23,-3.92 37.22,-3.00 15.00,13.90
             -0.31,25.55 -4.41,43.37 12.01,56.32
             22.65,64.71 29.71,61.46 38.00,65.00 Z
           M 38.00,53.00
           C 28.16,51.95 23.54,45.66 24.04,36.00
             24.57,25.81 35.16,16.39 45.00,15.18
             56.70,13.74 66.51,22.09 61.00,34.00
             63.54,34.91 65.77,35.62 68.12,37.42
             73.09,41.82 72.54,48.80 68.12,53.78
             64.15,58.78 45.64,63.50 40.43,58.49
             38.66,56.78 38.48,55.24 38.00,53.00 Z
           M 60.00,33.00
           C 63.64,20.14 54.46,15.32 43.00,17.33
             34.33,18.85 26.07,27.13 25.20,36.00
             24.73,40.71 26.45,45.51 30.11,48.58
             32.88,50.92 35.56,51.46 39.00,52.00
             39.00,52.00 43.00,41.00 43.00,41.00
             39.63,40.12 35.62,38.68 34.40,34.98
             32.60,29.54 40.50,25.19 45.00,25.19
             50.72,25.18 54.76,28.70 58.00,33.00
             58.00,33.00 60.00,33.00 60.00,33.00 Z
           M 57.00,35.00
           C 53.78,24.31 39.01,25.66 36.18,30.34
             31.74,37.67 41.96,39.83 47.00,38.51
             47.00,38.51 57.00,35.00 57.00,35.00 Z
           M 70.00,44.00
           C 68.65,37.80 66.05,36.65 60.00,36.00
             60.00,36.00 70.00,44.00 70.00,44.00 Z
           M 58.00,39.00
           C 49.95,41.16 47.23,41.86 42.00,49.00
             51.39,52.44 55.78,48.97 59.00,40.00
             59.00,40.00 58.00,39.00 58.00,39.00 Z
           M 60.00,40.00
           C 58.44,45.28 55.59,49.68 50.00,51.34
             46.74,52.30 42.73,51.00 41.05,53.59
             38.07,58.20 46.51,59.04 49.00,58.96
             53.70,58.81 62.33,56.86 65.77,53.61
             72.10,47.63 67.03,41.50 60.00,40.00 Z
           M 46.00,42.00
           C 46.00,42.00 42.00,45.00 42.00,45.00
             42.00,45.00 46.00,42.00 46.00,42.00 Z
           M 42.00,50.00
           C 42.00,50.00 41.00,50.00 41.00,50.00
             41.00,50.00 42.00,51.00 42.00,51.00
             42.00,51.00 42.00,50.00 42.00,50.00 Z
           M 135.00,57.42
           C 176.87,52.33 218.51,90.26 219.00,132.00
             219.17,146.97 217.97,158.08 211.69,172.00
             196.52,205.64 167.22,218.41 132.00,218.00
             111.32,217.75 86.31,207.58 73.53,191.00
             55.40,167.49 54.26,123.58 68.31,98.00
             78.63,79.21 98.49,65.63 119.00,60.15
             119.00,60.15 135.00,57.42 135.00,57.42 Z
           M 134.00,59.28
           C 109.23,62.92 84.83,73.58 71.45,96.00
             55.33,123.03 56.67,171.65 79.17,194.91
             92.31,208.50 114.36,215.78 133.00,216.00
             154.33,216.25 177.02,210.90 193.00,195.91
             235.46,156.09 219.95,78.95 163.00,62.04
             153.85,59.32 143.49,58.40 134.00,59.28 Z
           M 155.00,104.00
           C 155.00,104.00 178.00,109.58 178.00,109.58
             178.00,109.58 190.00,114.00 190.00,114.00
             190.00,114.00 167.00,108.42 167.00,108.42
             167.00,108.42 155.00,104.00 155.00,104.00 Z
           M 88.00,121.00
           C 91.04,116.94 104.71,113.02 110.00,111.05
             113.06,109.91 115.72,108.53 119.00,109.00
             119.00,109.00 88.00,121.00 88.00,121.00 Z
           M 113.31,140.08
           C 119.70,138.70 120.71,144.95 116.85,146.92
             113.40,148.68 108.88,144.75 113.31,140.08 Z
           M 163.04,140.05
           C 169.05,140.97 168.10,146.34 164.86,147.60
             161.12,149.05 156.10,143.37 163.04,140.05 Z
           M 130.00,183.00
           C 132.59,176.53 138.85,172.24 146.00,173.34
             151.73,174.23 159.01,179.61 157.00,186.00
             154.58,178.91 147.87,173.07 140.00,175.70
             136.09,177.01 133.17,180.47 130.00,183.00 Z" />
</svg>
