<svg xmlns="http://www.w3.org/2000/svg" xmlns:xlink="http://www.w3.org/1999/xlink" width="800" zoomAndPan="magnify" viewBox="0 0 600 899.99999" height="1200" preserveAspectRatio="xMidYMid meet" version="1.2"><defs><clipPath id="168751c6aa"><path d="M 257 409.46875 L 432 409.46875 L 432 581.96875 L 257 581.96875 Z M 257 409.46875 "/></clipPath><clipPath id="cfc07982af"><path d="M 74.789062 435 L 194.789062 435 L 194.789062 556 L 74.789062 556 Z M 74.789062 435 "/></clipPath><clipPath id="e7f6f7dadf"><path d="M 446.765625 235.03125 L 566.765625 235.03125 L 566.765625 355.03125 L 446.765625 355.03125 Z M 446.765625 235.03125 "/></clipPath><clipPath id="2618ffb5df"><path d="M 33.527344 223.421875 L 176.777344 223.421875 L 176.777344 366.671875 L 33.527344 366.671875 Z M 33.527344 223.421875 "/></clipPath><clipPath id="61556162e4"><path d="M 232.246094 208 L 391.246094 208 L 391.246094 366.878906 L 232.246094 366.878906 Z M 232.246094 208 "/></clipPath></defs><g id="97307b156a"><rect x="0" width="600" y="0" height="899.99999" style="fill:#ffffff;fill-opacity:1;stroke:none;"/><rect x="0" width="600" y="0" height="899.99999" style="fill:#ffffff;fill-opacity:1;stroke:none;"/><g clip-rule="nonzero" clip-path="url(#168751c6aa)"><path style=" stroke:none;fill-rule:nonzero;fill:#ffffff;fill-opacity:1;" d="M 419.132812 479.761719 C 410.929688 468.082031 399.667969 459.464844 387.367188 455.421875 C 381.441406 453.460938 375.0625 452.484375 368.421875 452.484375 C 362.304688 452.484375 356.121094 453.332031 350 455.027344 C 337.371094 458.488281 326.238281 465.144531 317.710938 474.214844 C 317.0625 474.933594 316.410156 475.652344 315.824219 476.371094 C 315.890625 475.976562 315.953125 475.652344 316.019531 475.261719 C 316.085938 473.5625 315.238281 472.0625 314 471.082031 C 315.433594 470.5625 316.867188 469.972656 318.234375 469.320312 C 324.742188 466.058594 329.691406 460.96875 332.359375 454.898438 C 334.898438 448.894531 335.484375 442.042969 333.921875 435.449219 C 332.425781 429.183594 328.777344 423.246094 323.703125 418.808594 C 318.820312 414.566406 312.828125 411.628906 306.386719 410.324219 C 303.847656 409.734375 301.179688 409.476562 298.507812 409.476562 C 294.082031 409.476562 289.65625 410.191406 285.292969 411.5625 C 278.523438 413.71875 272.210938 417.242188 267.199219 421.808594 C 263.160156 425.464844 258.148438 431.535156 257.433594 439.625 C 256.78125 446.414062 259.710938 453.527344 265.113281 458.75 C 267.652344 461.226562 270.777344 463.1875 274.226562 464.558594 C 274.945312 464.882812 275.726562 465.144531 276.507812 465.339844 C 278.589844 466.578125 280.800781 467.625 283.210938 468.40625 C 287.3125 469.777344 291.738281 470.496094 296.425781 470.496094 C 296.75 470.496094 297.078125 470.496094 297.402344 470.496094 C 299.875 475.71875 305.082031 479.566406 311.074219 479.894531 C 311.136719 479.894531 311.332031 479.894531 311.332031 479.894531 C 312.113281 479.894531 312.828125 479.699219 313.480469 479.371094 C 311.007812 482.632812 308.988281 486.09375 307.363281 489.617188 C 304.953125 494.902344 303.261719 501.039062 302.414062 507.761719 C 300.59375 521.402344 302.21875 535.433594 306.90625 547.246094 C 309.445312 553.640625 312.765625 559.121094 316.800781 563.363281 C 320.96875 567.804688 326.042969 571.589844 331.902344 574.523438 C 341.472656 579.417969 352.667969 581.964844 364.320312 581.964844 C 365.753906 581.964844 367.25 581.898438 368.683594 581.835938 C 382.09375 581.117188 394.332031 577.199219 404.09375 570.480469 C 406.570312 568.78125 408.914062 566.890625 410.996094 564.867188 C 410.996094 564.867188 411.125 564.734375 411.125 564.734375 C 421.933594 554.226562 429.09375 539.21875 430.785156 523.488281 C 432.28125 508.21875 428.179688 492.683594 419.132812 479.761719 Z M 419.132812 479.761719 "/></g><path style=" stroke:none;fill-rule:nonzero;fill:#ffffff;fill-opacity:1;" d="M 413.011719 552.988281 C 411.125 555.664062 408.914062 558.144531 406.570312 560.429688 C 398.496094 568.195312 387.691406 572.699219 376.753906 574.65625 C 365.363281 576.679688 353.320312 575.960938 342.253906 572.242188 C 331.707031 568.714844 322.007812 562.125 316.148438 552.464844 C 309.964844 542.15625 307.558594 529.558594 307.6875 517.617188 C 307.816406 506.0625 310.355469 494.449219 316.929688 484.789062 C 323.375 475.324219 332.878906 468.144531 343.359375 463.707031 C 353.839844 459.269531 365.6875 457.441406 377.015625 459.207031 C 382.613281 460.054688 388.082031 461.816406 393.09375 464.492188 C 398.5625 467.429688 403.574219 471.277344 407.871094 475.78125 C 417.308594 485.507812 423.492188 498.363281 424.601562 512.003906 C 425.835938 526.492188 421.476562 541.304688 413.011719 552.988281 Z M 413.011719 552.988281 "/><path style=" stroke:none;fill-rule:nonzero;fill:#000000;fill-opacity:1;" d="M 415.941406 482.046875 C 408.652344 471.671875 398.238281 463.121094 386.128906 459.140625 C 374.867188 455.421875 362.433594 455.617188 351.042969 458.75 C 339.585938 461.945312 328.777344 468.082031 320.578125 476.828125 C 316.605469 481.070312 313.21875 485.964844 310.8125 491.25 C 308.402344 496.601562 306.972656 502.410156 306.191406 508.28125 C 304.5625 520.75 305.734375 534.0625 310.421875 545.742188 C 312.570312 551.160156 315.5 556.382812 319.535156 560.625 C 323.507812 564.867188 328.324219 568.324219 333.53125 571 C 344.207031 576.417969 356.445312 578.570312 368.292969 577.917969 C 380.007812 577.265625 391.921875 573.9375 401.6875 567.28125 C 403.964844 565.714844 406.113281 564.019531 408.066406 562.058594 C 408.066406 562.058594 408.132812 561.996094 408.132812 561.996094 C 418.546875 551.8125 425.054688 537.652344 426.617188 523.164062 C 428.3125 508.609375 424.339844 493.925781 415.941406 482.046875 Z M 413.011719 552.988281 C 411.125 555.664062 408.914062 558.144531 406.570312 560.429688 C 398.496094 568.195312 387.691406 572.699219 376.753906 574.65625 C 365.363281 576.679688 353.320312 575.960938 342.253906 572.242188 C 331.707031 568.714844 322.007812 562.125 316.148438 552.464844 C 309.964844 542.15625 307.558594 529.558594 307.6875 517.617188 C 307.816406 506.0625 310.355469 494.449219 316.929688 484.789062 C 323.375 475.324219 332.878906 468.144531 343.359375 463.707031 C 353.839844 459.269531 365.6875 457.441406 377.015625 459.207031 C 382.613281 460.054688 388.082031 461.816406 393.09375 464.492188 C 398.5625 467.429688 403.574219 471.277344 407.871094 475.78125 C 417.308594 485.507812 423.492188 498.363281 424.601562 512.003906 C 425.835938 526.492188 421.476562 541.304688 413.011719 552.988281 Z M 413.011719 552.988281 "/><path style=" stroke:none;fill-rule:nonzero;fill:#000000;fill-opacity:1;" d="M 352.019531 520.617188 C 352.019531 520.617188 352.019531 520.550781 352.019531 520.550781 C 351.824219 519.835938 351.691406 519.769531 351.367188 519.246094 C 351.171875 518.984375 350.976562 518.726562 350.714844 518.59375 C 350.457031 518.332031 350.195312 518.203125 349.871094 518.136719 C 349.675781 518.074219 349.542969 518.007812 349.347656 517.941406 C 349.152344 517.875 349.152344 517.941406 348.828125 517.875 C 348.503906 517.8125 348.113281 517.8125 347.785156 517.875 C 347.265625 517.875 346.808594 518.074219 346.355469 518.332031 C 346.09375 518.53125 345.832031 518.726562 345.574219 518.921875 C 345.378906 519.183594 345.183594 519.441406 344.988281 519.703125 C 344.859375 520.03125 344.726562 520.355469 344.597656 520.617188 C 344.53125 520.945312 344.53125 521.335938 344.46875 521.660156 C 344.53125 521.988281 344.53125 522.378906 344.597656 522.707031 C 344.726562 523.03125 344.859375 523.359375 344.988281 523.621094 C 345.183594 523.882812 345.378906 524.140625 345.574219 524.402344 C 345.832031 524.597656 346.09375 524.792969 346.355469 524.992188 C 346.679688 525.121094 347.003906 525.25 347.265625 525.382812 C 347.589844 525.445312 347.980469 525.445312 348.308594 525.511719 C 348.828125 525.511719 349.347656 525.445312 349.804688 525.1875 C 350.128906 525.121094 350.390625 524.925781 350.652344 524.664062 C 350.976562 524.46875 351.171875 524.273438 351.367188 523.945312 C 351.628906 523.683594 351.757812 523.425781 351.886719 523.097656 C 352.082031 522.769531 352.148438 522.445312 352.148438 522.117188 C 352.148438 521.660156 352.148438 521.140625 352.019531 520.617188 Z M 352.019531 520.617188 "/><path style=" stroke:none;fill-rule:nonzero;fill:#ffffff;fill-opacity:1;" d="M 328.582031 446.609375 C 327.738281 452.027344 325.199219 456.855469 321.03125 460.445312 C 320.707031 460.773438 320.316406 461.03125 319.925781 461.292969 C 314.523438 463.449219 308.988281 465.210938 303.261719 466.058594 C 302.871094 465.796875 302.285156 465.863281 301.894531 466.253906 C 296.035156 466.972656 289.980469 466.644531 284.316406 464.753906 C 282.105469 464.035156 279.957031 462.992188 277.9375 461.75 C 280.214844 462.46875 282.558594 462.925781 284.96875 463.121094 C 286.597656 463.25 288.160156 463.316406 289.785156 463.25 C 291.023438 463.1875 291.023438 461.226562 289.785156 461.292969 C 283.863281 461.488281 277.742188 460.445312 272.601562 457.3125 C 267.914062 454.441406 264.269531 449.675781 263.292969 444.261719 C 261.144531 432.511719 272.664062 423.375 282.039062 419.070312 C 292.519531 414.304688 304.886719 413.976562 314.976562 419.917969 C 319.730469 422.527344 323.703125 426.441406 326.109375 431.207031 C 328.519531 435.839844 329.363281 441.386719 328.582031 446.609375 Z M 328.582031 446.609375 "/><path style=" stroke:none;fill-rule:nonzero;fill:#000000;fill-opacity:1;" d="M 293.300781 451.765625 C 290.308594 453.136719 286.792969 451.894531 284.449219 449.742188 C 281.84375 447.328125 280.605469 443.867188 281.257812 440.34375 C 282.625 432.644531 290.699219 426.378906 298.445312 426.574219 C 302.21875 426.703125 305.800781 428.792969 307.167969 432.382812 C 308.402344 435.582031 307.167969 438.910156 304.300781 440.734375 C 301.503906 442.496094 297.988281 443.019531 294.667969 442.953125 C 293.039062 442.890625 291.21875 442.695312 289.785156 441.78125 C 288.417969 440.933594 287.898438 439.300781 288.550781 437.800781 C 290.046875 434.40625 294.472656 433.558594 297.726562 434.339844 C 300.851562 435.058594 303.847656 437.210938 305.019531 440.214844 C 306.320312 443.476562 305.082031 447.132812 302.542969 449.480469 C 301.375 450.523438 299.8125 451.308594 298.183594 451.4375 C 296.492188 451.570312 294.472656 450.980469 293.625 449.351562 C 292.714844 447.589844 294.667969 446.21875 295.96875 445.433594 C 297.859375 444.261719 299.746094 443.085938 301.761719 442.238281 C 305.082031 440.867188 309.445312 440.410156 312.375 443.019531 C 315.238281 445.628906 314.457031 449.808594 312.179688 452.484375 C 309.511719 455.679688 305.148438 456.660156 301.242188 457.378906 C 298.507812 457.835938 292.648438 459.007812 292.128906 454.832031 C 291.933594 453.003906 293.039062 451.179688 294.148438 449.871094 C 295.449219 448.242188 297.207031 446.9375 298.964844 445.828125 C 302.152344 443.867188 306.125 442.953125 309.574219 444.71875 C 312.570312 446.21875 314.195312 449.546875 312.503906 452.679688 C 311.855469 453.917969 310.746094 454.964844 309.316406 455.160156 C 308.078125 455.289062 308.078125 457.246094 309.316406 457.117188 C 313.351562 456.660156 315.757812 452.417969 315.042969 448.566406 C 314.261719 444.324219 309.640625 441.84375 305.667969 441.78125 C 300.851562 441.714844 296.035156 444.71875 292.976562 448.304688 C 291.542969 450.003906 290.242188 452.15625 290.175781 454.441406 C 290.175781 456.660156 291.542969 458.550781 293.5625 459.335938 C 295.578125 460.183594 297.921875 459.921875 300.007812 459.597656 C 302.542969 459.207031 305.082031 458.75 307.492188 457.898438 C 311.855469 456.269531 315.628906 452.941406 316.148438 448.109375 C 316.671875 443.542969 313.089844 440.082031 308.792969 439.367188 C 303.714844 438.515625 298.964844 441.257812 294.796875 443.867188 C 292.910156 445.042969 291.085938 446.804688 291.542969 449.21875 C 292 451.308594 294.082031 452.808594 296.101562 453.265625 C 300.332031 454.113281 304.496094 451.4375 306.386719 447.71875 C 308.339844 443.867188 307.6875 439.429688 304.824219 436.234375 C 302.023438 433.164062 297.664062 431.597656 293.5625 432.25 C 289.589844 432.839844 284.773438 436.820312 286.855469 441.257812 C 288.679688 445.042969 294.210938 445.109375 297.726562 444.71875 C 301.632812 444.324219 305.863281 442.953125 308.207031 439.5625 C 310.746094 435.90625 309.640625 431.078125 306.710938 428.007812 C 303.324219 424.421875 298.117188 423.898438 293.5625 425.203125 C 288.941406 426.507812 284.773438 429.574219 282.039062 433.558594 C 279.566406 437.144531 278.265625 441.976562 279.828125 446.21875 C 281.257812 450.003906 284.578125 453.199219 288.613281 453.984375 C 290.566406 454.375 292.453125 454.179688 294.277344 453.332031 C 295.449219 452.941406 294.472656 451.242188 293.300781 451.765625 Z M 293.300781 451.765625 "/><path style=" stroke:none;fill-rule:nonzero;fill:#000000;fill-opacity:1;" d="M 328.714844 453.265625 C 326.304688 458.8125 321.8125 463.054688 316.476562 465.730469 C 313.742188 467.101562 310.878906 468.082031 307.949219 468.734375 C 306.644531 469.058594 305.214844 469.386719 303.847656 469.125 C 302.738281 468.929688 301.699219 468.082031 301.765625 466.90625 C 301.765625 466.90625 301.765625 466.839844 301.765625 466.839844 C 301.765625 466.578125 301.894531 466.382812 302.023438 466.253906 C 302.347656 465.863281 303 465.796875 303.390625 466.058594 C 303.585938 466.1875 303.714844 466.382812 303.714844 466.644531 C 303.714844 466.710938 303.714844 466.777344 303.714844 466.839844 C 303.714844 467.035156 303.652344 466.972656 303.847656 467.101562 C 303.976562 467.234375 304.238281 467.234375 304.367188 467.296875 C 304.886719 467.363281 305.410156 467.296875 305.863281 467.234375 C 309.964844 466.449219 314.066406 465.078125 317.710938 462.859375 C 318.492188 462.402344 319.273438 461.882812 319.992188 461.292969 C 320.382812 461.03125 320.707031 460.707031 321.097656 460.445312 C 325.261719 456.921875 327.800781 452.027344 328.648438 446.609375 C 329.429688 441.453125 328.582031 435.90625 326.175781 431.207031 C 323.703125 426.441406 319.730469 422.527344 315.109375 419.851562 C 305.019531 413.914062 292.648438 414.238281 282.167969 419.003906 C 272.730469 423.246094 261.273438 432.449219 263.421875 444.195312 C 264.398438 449.675781 268.042969 454.375 272.730469 457.246094 C 277.875 460.378906 283.925781 461.425781 289.917969 461.226562 C 291.152344 461.164062 291.152344 463.121094 289.917969 463.1875 C 288.289062 463.25 286.726562 463.1875 285.097656 463.054688 C 282.753906 462.859375 280.347656 462.402344 278.070312 461.683594 C 277.289062 461.425781 276.441406 461.164062 275.726562 460.835938 C 272.796875 459.664062 270.125 458.03125 267.847656 455.8125 C 263.617188 451.765625 260.816406 445.828125 261.339844 439.886719 C 261.859375 433.882812 265.441406 428.597656 269.867188 424.617188 C 274.617188 420.308594 280.410156 417.109375 286.53125 415.21875 C 292.714844 413.324219 299.289062 412.738281 305.667969 414.042969 C 311.398438 415.21875 316.800781 417.828125 321.164062 421.679688 C 325.523438 425.464844 328.777344 430.554688 330.144531 436.234375 C 331.382812 441.910156 330.992188 447.980469 328.714844 453.265625 Z M 328.714844 453.265625 "/><path style=" stroke:none;fill-rule:nonzero;fill:#000000;fill-opacity:1;" d="M 299.746094 464.296875 C 299.941406 470.367188 305.082031 475.652344 311.136719 475.976562 C 312.375 476.042969 312.375 474.085938 311.136719 474.019531 C 306.191406 473.757812 301.828125 469.253906 301.699219 464.296875 C 301.699219 463.054688 299.746094 463.054688 299.746094 464.296875 Z M 299.746094 464.296875 "/><path style=" stroke:none;fill-rule:nonzero;fill:#000000;fill-opacity:1;" d="M 360.742188 551.421875 C 362.5625 547.636719 366.664062 545.15625 370.894531 545.546875 C 374.996094 545.941406 378.511719 549.203125 379.554688 553.117188 C 379.878906 554.359375 381.765625 553.835938 381.441406 552.597656 C 380.203125 547.832031 375.972656 544.179688 371.15625 543.589844 C 366.273438 543.003906 361.195312 545.941406 359.113281 550.378906 C 358.527344 551.617188 360.21875 552.597656 360.742188 551.421875 Z M 360.742188 551.421875 "/><path style=" stroke:none;fill-rule:nonzero;fill:#000000;fill-opacity:1;" d="M 350.457031 494.644531 C 343.035156 497.449219 335.679688 500.253906 328.257812 503.0625 C 327.085938 503.519531 327.605469 505.410156 328.777344 504.953125 C 336.199219 502.148438 343.554688 499.34375 350.976562 496.535156 C 352.148438 496.144531 351.628906 494.25 350.457031 494.644531 Z M 350.457031 494.644531 "/><path style=" stroke:none;fill-rule:nonzero;fill:#000000;fill-opacity:1;" d="M 378.382812 493.335938 C 386.910156 495.558594 395.4375 497.777344 403.964844 499.996094 C 405.203125 500.320312 405.722656 498.429688 404.484375 498.101562 C 395.957031 495.882812 387.429688 493.664062 378.902344 491.445312 C 377.730469 491.117188 377.210938 493.011719 378.382812 493.335938 Z M 378.382812 493.335938 "/><path style=" stroke:none;fill-rule:nonzero;fill:#000000;fill-opacity:1;" d="M 388.40625 520.945312 C 388.40625 520.945312 388.40625 520.878906 388.40625 520.878906 C 388.210938 520.160156 388.082031 520.097656 387.757812 519.574219 C 387.5625 519.3125 387.367188 519.050781 387.105469 518.921875 C 386.84375 518.660156 386.585938 518.53125 386.257812 518.464844 C 386.0625 518.398438 385.933594 518.332031 385.738281 518.269531 C 385.542969 518.203125 385.542969 518.269531 385.21875 518.203125 C 384.890625 518.136719 384.5 518.136719 384.175781 518.203125 C 383.65625 518.203125 383.199219 518.398438 382.742188 518.660156 C 382.484375 518.855469 382.222656 519.050781 381.960938 519.246094 C 381.765625 519.507812 381.570312 519.769531 381.375 520.03125 C 381.246094 520.355469 381.117188 520.683594 380.984375 520.945312 C 380.921875 521.269531 380.921875 521.660156 380.855469 521.988281 C 380.921875 522.316406 380.921875 522.707031 380.984375 523.03125 C 381.117188 523.359375 381.246094 523.683594 381.375 523.945312 C 381.570312 524.207031 381.765625 524.46875 381.960938 524.730469 C 382.222656 524.925781 382.484375 525.121094 382.742188 525.316406 C 383.070312 525.445312 383.394531 525.578125 383.65625 525.707031 C 383.980469 525.773438 384.371094 525.773438 384.695312 525.839844 C 385.21875 525.839844 385.738281 525.773438 386.195312 525.511719 C 386.519531 525.445312 386.78125 525.25 387.039062 524.992188 C 387.367188 524.792969 387.5625 524.597656 387.757812 524.273438 C 388.015625 524.011719 388.148438 523.75 388.277344 523.425781 C 388.472656 523.097656 388.539062 522.769531 388.539062 522.445312 C 388.601562 521.988281 388.601562 521.464844 388.40625 520.945312 Z M 388.40625 520.945312 "/><g clip-rule="nonzero" clip-path="url(#cfc07982af)"><path style=" stroke:none;fill-rule:nonzero;fill:#000000;fill-opacity:1;" d="M 188.132812 454.296875 C 175.597656 454.269531 163.0625 454.253906 150.527344 454.25 L 144.042969 454.25 C 143.730469 454.226562 143.425781 454.269531 143.132812 454.378906 C 142.839844 454.488281 142.582031 454.652344 142.359375 454.875 C 142.136719 455.097656 141.96875 455.355469 141.859375 455.648438 C 141.75 455.945312 141.707031 456.246094 141.730469 456.5625 L 141.808594 470.257812 C 135.796875 468.746094 131.414062 470.023438 128.425781 474.15625 C 127.761719 475.074219 127.246094 476.066406 126.882812 477.136719 C 126.519531 478.207031 126.324219 479.308594 126.296875 480.4375 C 126.269531 481.570312 126.410156 482.675781 126.71875 483.765625 C 127.03125 484.851562 127.496094 485.871094 128.113281 486.816406 C 130.953125 491.214844 135.042969 492.546875 141.742188 491.230469 L 141.742188 503.007812 L 137.035156 503.007812 C 133.65625 503.007812 130.277344 503.007812 126.890625 503.007812 C 125.96875 503 124.78125 503.007812 124.222656 504.257812 C 123.695312 505.429688 124.367188 506.253906 124.960938 506.984375 C 125.660156 507.804688 126.136719 508.734375 126.390625 509.78125 C 126.640625 510.828125 126.640625 511.875 126.390625 512.921875 C 126.246094 513.625 125.996094 514.292969 125.644531 514.917969 C 125.289062 515.546875 124.851562 516.105469 124.324219 516.597656 C 123.796875 517.089844 123.207031 517.488281 122.554688 517.796875 C 121.90625 518.105469 121.222656 518.304688 120.507812 518.402344 C 119.816406 518.492188 119.125 518.480469 118.4375 518.367188 C 117.75 518.253906 117.089844 518.042969 116.464844 517.738281 C 115.835938 517.429688 115.269531 517.042969 114.757812 516.566406 C 114.242188 516.09375 113.8125 515.554688 113.457031 514.953125 C 113.089844 514.335938 112.828125 513.671875 112.671875 512.972656 C 112.511719 512.269531 112.460938 511.5625 112.523438 510.84375 C 112.585938 510.125 112.757812 509.4375 113.035156 508.773438 C 113.3125 508.109375 113.6875 507.503906 114.152344 506.957031 C 114.363281 506.800781 114.539062 506.617188 114.683594 506.402344 C 114.824219 506.183594 114.929688 505.953125 114.992188 505.699219 C 115.054688 505.449219 115.074219 505.195312 115.046875 504.9375 C 115.019531 504.679688 114.953125 504.433594 114.839844 504.199219 C 114.726562 503.964844 114.578125 503.757812 114.394531 503.574219 C 114.210938 503.390625 114 503.246094 113.765625 503.136719 C 113.53125 503.027344 113.285156 502.960938 113.027344 502.9375 C 112.765625 502.914062 112.511719 502.9375 112.261719 503 C 109.515625 503 106.773438 503 104.027344 503 C 101.28125 503 98.535156 503 95.789062 503 C 93.820312 503 93.089844 503.726562 93.085938 505.652344 L 93.085938 509.140625 C 93.085938 522.503906 93.085938 535.867188 93.085938 549.226562 C 93.066406 549.667969 93.089844 550.105469 93.15625 550.539062 C 93.226562 550.976562 93.339844 551.398438 93.5 551.8125 C 93.65625 552.222656 93.855469 552.613281 94.09375 552.984375 C 94.332031 553.355469 94.605469 553.695312 94.917969 554.007812 C 95.226562 554.320312 95.566406 554.597656 95.933594 554.839844 C 96.304688 555.082031 96.691406 555.285156 97.101562 555.445312 C 97.511719 555.609375 97.9375 555.726562 98.371094 555.796875 C 98.804688 555.871094 99.242188 555.898438 99.683594 555.878906 C 114.421875 555.886719 129.15625 555.886719 143.894531 555.878906 C 158.632812 555.875 173.371094 555.875 188.109375 555.878906 C 188.550781 555.90625 188.988281 555.886719 189.425781 555.820312 C 189.863281 555.753906 190.289062 555.640625 190.703125 555.484375 C 191.113281 555.328125 191.507812 555.132812 191.878906 554.890625 C 192.25 554.652344 192.589844 554.375 192.902344 554.066406 C 193.214844 553.753906 193.492188 553.414062 193.734375 553.042969 C 193.976562 552.671875 194.175781 552.28125 194.332031 551.867188 C 194.488281 551.457031 194.601562 551.03125 194.671875 550.59375 C 194.738281 550.160156 194.761719 549.71875 194.734375 549.28125 C 194.75 519.816406 194.75 490.351562 194.734375 460.886719 C 194.757812 460.445312 194.738281 460.007812 194.667969 459.574219 C 194.597656 459.140625 194.488281 458.71875 194.328125 458.304688 C 194.171875 457.894531 193.972656 457.507812 193.730469 457.136719 C 193.492188 456.769531 193.21875 456.429688 192.90625 456.117188 C 192.59375 455.808594 192.253906 455.53125 191.882812 455.292969 C 191.515625 455.054688 191.125 454.855469 190.714844 454.699219 C 190.300781 454.542969 189.878906 454.429688 189.445312 454.363281 C 189.011719 454.296875 188.574219 454.273438 188.132812 454.296875 Z M 142.945312 534.085938 C 142.503906 534.351562 142.175781 534.71875 141.964844 535.1875 C 141.75 535.65625 141.6875 536.144531 141.78125 536.648438 C 141.808594 540.660156 141.804688 544.671875 141.800781 548.683594 L 141.800781 551.378906 C 141.792969 551.484375 141.777344 551.585938 141.75 551.6875 L 100.453125 551.6875 C 97.902344 551.6875 97.316406 551.105469 97.316406 548.570312 L 97.316406 507.277344 L 109.042969 507.277344 C 107.660156 513.484375 108.960938 517.730469 113.121094 520.617188 C 114.046875 521.265625 115.046875 521.761719 116.121094 522.105469 C 117.199219 522.449219 118.300781 522.628906 119.433594 522.636719 C 120.5625 522.648438 121.667969 522.492188 122.75 522.164062 C 123.832031 521.839844 124.839844 521.363281 125.777344 520.730469 C 130.042969 517.886719 131.363281 513.722656 130.03125 507.261719 L 141.71875 507.261719 C 141.75 507.460938 141.769531 507.660156 141.773438 507.863281 L 141.753906 511.828125 C 141.730469 515.359375 141.707031 519.011719 141.753906 522.605469 C 141.824219 523.484375 142.210938 524.191406 142.917969 524.722656 C 144.070312 525.503906 145.226562 524.511719 145.609375 524.1875 C 145.988281 523.851562 146.398438 523.5625 146.839844 523.316406 C 147.28125 523.070312 147.742188 522.875 148.230469 522.726562 C 148.710938 522.582031 149.207031 522.492188 149.710938 522.453125 C 150.214844 522.414062 150.71875 522.429688 151.21875 522.5 C 151.71875 522.570312 152.207031 522.695312 152.679688 522.871094 C 153.15625 523.046875 153.605469 523.273438 154.03125 523.546875 C 154.457031 523.820312 154.847656 524.136719 155.203125 524.492188 C 155.558594 524.851562 155.875 525.246094 156.144531 525.671875 C 156.417969 526.097656 156.640625 526.546875 156.8125 527.023438 C 156.988281 527.496094 157.109375 527.984375 157.175781 528.488281 C 157.246094 528.988281 157.257812 529.488281 157.21875 529.992188 C 157.175781 530.496094 157.082031 530.992188 156.933594 531.476562 C 156.785156 531.957031 156.589844 532.421875 156.339844 532.859375 C 156.09375 533.300781 155.800781 533.710938 155.460938 534.085938 C 155.125 534.464844 154.753906 534.800781 154.34375 535.097656 C 153.933594 535.394531 153.496094 535.644531 153.03125 535.84375 C 152.433594 536.128906 151.808594 536.320312 151.15625 536.417969 C 150.5 536.515625 149.847656 536.511719 149.191406 536.414062 C 148.539062 536.3125 147.914062 536.117188 147.320312 535.832031 C 146.722656 535.542969 146.183594 535.175781 145.699219 534.722656 C 145.539062 534.523438 145.347656 534.355469 145.132812 534.21875 C 144.914062 534.085938 144.679688 533.988281 144.429688 533.929688 C 144.179688 533.871094 143.929688 533.855469 143.675781 533.882812 C 143.417969 533.910156 143.175781 533.980469 142.945312 534.085938 Z M 187.507812 551.695312 L 146.082031 551.695312 L 146.082031 539.929688 C 152.207031 541.734375 156.894531 540.03125 160.027344 534.863281 C 160.597656 533.90625 161.007812 532.886719 161.261719 531.800781 C 161.511719 530.71875 161.59375 529.621094 161.503906 528.507812 C 161.410156 527.398438 161.15625 526.328125 160.730469 525.300781 C 160.304688 524.269531 159.734375 523.328125 159.015625 522.476562 C 155.671875 518.457031 151.308594 517.273438 146.046875 518.957031 L 146.046875 507.207031 C 146.175781 507.183594 146.300781 507.171875 146.429688 507.167969 L 148.886719 507.167969 C 152.976562 507.167969 157.066406 507.167969 161.160156 507.191406 L 161.222656 507.191406 C 161.707031 507.269531 162.171875 507.199219 162.609375 506.972656 C 163.046875 506.75 163.378906 506.417969 163.597656 505.976562 C 163.78125 505.511719 163.816406 505.039062 163.703125 504.550781 C 163.585938 504.066406 163.34375 503.65625 162.972656 503.324219 C 162.792969 503.117188 162.625 502.898438 162.472656 502.671875 C 162.316406 502.441406 162.175781 502.207031 162.050781 501.960938 C 161.921875 501.71875 161.808594 501.464844 161.710938 501.207031 C 161.617188 500.953125 161.535156 500.6875 161.46875 500.421875 C 161.402344 500.152344 161.351562 499.882812 161.316406 499.609375 C 161.28125 499.335938 161.265625 499.0625 161.261719 498.789062 C 161.261719 498.511719 161.273438 498.238281 161.304688 497.964844 C 161.335938 497.691406 161.382812 497.417969 161.445312 497.152344 C 161.507812 496.882812 161.585938 496.621094 161.679688 496.359375 C 161.773438 496.101562 161.882812 495.847656 162.003906 495.601562 C 162.128906 495.355469 162.265625 495.117188 162.417969 494.890625 C 162.570312 494.660156 162.734375 494.4375 162.910156 494.226562 C 163.089844 494.019531 163.277344 493.820312 163.480469 493.628906 C 163.679688 493.441406 163.894531 493.265625 164.113281 493.105469 C 164.335938 492.941406 164.566406 492.789062 164.804688 492.65625 C 165.046875 492.519531 165.292969 492.398438 165.546875 492.289062 C 165.800781 492.183594 166.058594 492.09375 166.324219 492.015625 C 166.589844 491.941406 166.859375 491.878906 167.128906 491.835938 C 167.402344 491.789062 167.675781 491.761719 167.949219 491.75 C 168.226562 491.738281 168.5 491.742188 168.773438 491.761719 C 169.050781 491.78125 169.320312 491.816406 169.59375 491.871094 C 169.863281 491.921875 170.128906 491.988281 170.390625 492.074219 C 170.65625 492.15625 170.910156 492.257812 171.160156 492.371094 C 171.414062 492.484375 171.65625 492.613281 171.890625 492.753906 C 172.125 492.898438 172.351562 493.054688 172.570312 493.222656 C 172.789062 493.394531 172.992188 493.574219 173.191406 493.769531 C 173.386719 493.960938 173.570312 494.167969 173.742188 494.382812 C 173.910156 494.597656 174.070312 494.824219 174.214844 495.058594 C 174.359375 495.292969 174.492188 495.53125 174.605469 495.78125 C 174.722656 496.03125 174.824219 496.289062 174.910156 496.550781 C 174.996094 496.8125 175.066406 497.078125 175.121094 497.347656 C 175.179688 497.617188 175.214844 497.886719 175.238281 498.164062 C 175.320312 499.105469 175.207031 500.027344 174.90625 500.925781 C 174.605469 501.824219 174.136719 502.628906 173.503906 503.332031 C 173.308594 503.484375 173.144531 503.664062 173.011719 503.871094 C 172.878906 504.078125 172.785156 504.300781 172.726562 504.542969 C 172.667969 504.78125 172.652344 505.023438 172.675781 505.269531 C 172.699219 505.515625 172.765625 505.75 172.867188 505.972656 C 173.117188 506.425781 173.472656 506.761719 173.9375 506.984375 C 174.402344 507.207031 174.890625 507.277344 175.398438 507.1875 C 179.203125 507.152344 183.007812 507.160156 186.875 507.164062 L 190.523438 507.164062 L 190.523438 507.253906 C 190.542969 507.554688 190.566406 507.839844 190.566406 508.121094 C 190.566406 521.613281 190.566406 535.101562 190.566406 548.589844 C 190.574219 551.027344 189.917969 551.695312 187.507812 551.695312 Z M 190.574219 502.890625 L 178.773438 502.890625 C 180.574219 496.816406 178.90625 492.144531 173.816406 489.007812 C 172.855469 488.421875 171.828125 487.996094 170.734375 487.730469 C 169.640625 487.46875 168.535156 487.378906 167.410156 487.460938 C 166.289062 487.546875 165.207031 487.800781 164.164062 488.222656 C 163.125 488.648438 162.171875 489.222656 161.308594 489.945312 C 157.265625 493.296875 156.082031 497.65625 157.78125 502.90625 L 145.972656 502.90625 L 145.972656 498.808594 C 145.972656 495.210938 145.972656 491.617188 145.972656 488.023438 C 146.035156 487.777344 146.058594 487.523438 146.035156 487.265625 C 146.015625 487.007812 145.949219 486.765625 145.84375 486.53125 C 145.734375 486.296875 145.59375 486.085938 145.410156 485.902344 C 145.230469 485.71875 145.027344 485.570312 144.796875 485.457031 C 144.5625 485.34375 144.320312 485.269531 144.0625 485.242188 C 143.808594 485.214844 143.554688 485.230469 143.304688 485.289062 C 143.050781 485.347656 142.820312 485.445312 142.601562 485.585938 C 142.386719 485.726562 142.199219 485.898438 142.042969 486.101562 C 141.703125 486.390625 141.339844 486.644531 140.949219 486.863281 C 140.5625 487.082031 140.15625 487.257812 139.730469 487.398438 C 139.308594 487.539062 138.875 487.636719 138.433594 487.691406 C 137.992188 487.75 137.546875 487.761719 137.101562 487.730469 C 136.65625 487.703125 136.21875 487.628906 135.789062 487.515625 C 135.355469 487.402344 134.941406 487.246094 134.539062 487.054688 C 134.136719 486.859375 133.757812 486.628906 133.402344 486.359375 C 133.046875 486.09375 132.71875 485.792969 132.421875 485.460938 C 132.121094 485.132812 131.851562 484.777344 131.621094 484.398438 C 131.386719 484.019531 131.191406 483.621094 131.035156 483.203125 C 130.878906 482.785156 130.761719 482.359375 130.683594 481.917969 C 130.609375 481.480469 130.574219 481.039062 130.582031 480.59375 C 130.589844 480.148438 130.640625 479.707031 130.730469 479.269531 C 130.824219 478.835938 130.957031 478.410156 131.128906 478 C 131.300781 477.589844 131.507812 477.195312 131.753906 476.824219 C 132 476.453125 132.28125 476.109375 132.589844 475.789062 C 132.902344 475.472656 133.238281 475.183594 133.605469 474.929688 C 133.972656 474.675781 134.359375 474.457031 134.765625 474.277344 C 135.171875 474.097656 135.59375 473.957031 136.027344 473.859375 C 136.464844 473.761719 136.902344 473.707031 137.347656 473.691406 C 137.792969 473.679688 138.238281 473.710938 138.675781 473.78125 C 139.117188 473.855469 139.546875 473.96875 139.964844 474.125 C 140.382812 474.277344 140.78125 474.472656 141.160156 474.707031 C 141.539062 474.9375 141.894531 475.203125 142.222656 475.503906 C 142.386719 475.691406 142.578125 475.84375 142.796875 475.964844 C 143.011719 476.085938 143.242188 476.164062 143.488281 476.207031 C 143.734375 476.25 143.976562 476.25 144.222656 476.210938 C 144.46875 476.171875 144.699219 476.09375 144.917969 475.972656 C 145.332031 475.710938 145.640625 475.359375 145.84375 474.914062 C 146.046875 474.46875 146.113281 474.003906 146.039062 473.519531 C 145.996094 469.753906 146.003906 466.0625 146.007812 462.160156 L 146.007812 458.546875 L 146.097656 458.546875 C 146.398438 458.523438 146.683594 458.5 146.964844 458.5 C 160.503906 458.5 174.042969 458.5 187.582031 458.5 C 189.933594 458.5 190.578125 459.15625 190.582031 461.542969 C 190.582031 471.664062 190.582031 481.78125 190.582031 491.902344 Z M 102.230469 484.085938 L 104.683594 485.066406 C 106.929688 485.964844 109.128906 486.839844 111.328125 487.707031 C 112.921875 488.332031 113.941406 487.9375 114.535156 486.457031 C 116.183594 482.386719 117.886719 478.175781 119.480469 473.921875 C 119.605469 473.515625 119.628906 473.097656 119.558594 472.675781 C 119.484375 472.253906 119.320312 471.871094 119.066406 471.527344 C 118.613281 471.011719 117.664062 471.023438 116.871094 471.035156 C 116.457031 471.046875 116.046875 471.09375 115.640625 471.171875 C 115.332031 471.21875 115.023438 471.234375 114.710938 471.222656 C 114.398438 471.207031 114.089844 471.167969 113.789062 471.097656 C 113.484375 471.027344 113.1875 470.925781 112.902344 470.800781 C 112.617188 470.675781 112.347656 470.523438 112.089844 470.347656 C 111.835938 470.167969 111.597656 469.96875 111.378906 469.746094 C 111.160156 469.527344 110.960938 469.285156 110.789062 469.027344 C 110.613281 468.769531 110.464844 468.496094 110.34375 468.207031 C 110.222656 467.921875 110.125 467.625 110.058594 467.320312 C 109.992188 467.019531 109.953125 466.710938 109.945312 466.398438 C 109.9375 466.085938 109.957031 465.777344 110.007812 465.46875 C 110.054688 465.160156 110.132812 464.859375 110.242188 464.566406 C 110.347656 464.273438 110.480469 463.992188 110.636719 463.726562 C 110.796875 463.457031 110.980469 463.207031 111.183594 462.972656 C 111.390625 462.738281 111.617188 462.527344 111.863281 462.335938 C 112.109375 462.144531 112.371094 461.976562 112.648438 461.835938 C 112.925781 461.691406 113.214844 461.578125 113.515625 461.488281 C 114.070312 461.316406 114.636719 461.242188 115.21875 461.269531 C 115.796875 461.292969 116.355469 461.417969 116.894531 461.636719 C 117.429688 461.859375 117.914062 462.164062 118.34375 462.554688 C 118.773438 462.945312 119.121094 463.398438 119.394531 463.914062 C 119.707031 464.457031 120.457031 465.734375 121.734375 465.339844 C 122.578125 465.019531 123.1875 464.453125 123.558594 463.628906 C 124.929688 460.367188 126.253906 457.023438 127.53125 453.789062 L 128.359375 451.699219 C 129.074219 449.890625 128.671875 448.949219 126.839844 448.21875 C 125.011719 447.488281 123.230469 446.78125 121.421875 446.066406 L 111.570312 442.160156 C 106.167969 440.015625 100.765625 437.875 95.359375 435.738281 C 95.019531 435.570312 94.664062 435.441406 94.296875 435.351562 C 93.929688 435.257812 93.554688 435.207031 93.175781 435.195312 C 92.796875 435.179688 92.421875 435.207031 92.050781 435.273438 C 91.675781 435.339844 91.3125 435.445312 90.964844 435.585938 C 90.613281 435.730469 90.28125 435.90625 89.964844 436.121094 C 89.652344 436.332031 89.363281 436.574219 89.101562 436.847656 C 88.839844 437.121094 88.609375 437.417969 88.40625 437.742188 C 88.207031 438.0625 88.042969 438.402344 87.914062 438.757812 C 83.660156 449.386719 79.425781 460.027344 75.21875 470.675781 C 75.128906 470.824219 75.0625 470.980469 75.007812 471.144531 C 74.957031 471.308594 74.925781 471.476562 74.914062 471.648438 C 74.902344 471.820312 74.914062 471.992188 74.941406 472.160156 C 74.972656 472.332031 75.019531 472.496094 75.089844 472.652344 C 75.160156 472.8125 75.246094 472.957031 75.347656 473.097656 C 75.453125 473.234375 75.570312 473.355469 75.703125 473.464844 C 75.839844 473.574219 75.984375 473.667969 76.136719 473.742188 C 76.292969 473.816406 76.457031 473.871094 76.625 473.90625 C 78.421875 474.636719 80.226562 475.355469 82.03125 476.074219 L 85.117188 477.308594 C 85.328125 477.394531 85.53125 477.488281 85.75 477.589844 C 85.125 478.335938 84.636719 479.15625 84.277344 480.058594 C 83.921875 480.964844 83.714844 481.898438 83.65625 482.867188 C 83.601562 483.835938 83.699219 484.789062 83.949219 485.726562 C 84.199219 486.667969 84.589844 487.539062 85.125 488.351562 C 85.496094 489.015625 85.953125 489.621094 86.488281 490.164062 C 87.019531 490.707031 87.617188 491.167969 88.277344 491.554688 C 88.933594 491.9375 89.632812 492.226562 90.367188 492.425781 C 91.101562 492.625 91.851562 492.722656 92.613281 492.71875 C 93.09375 492.71875 93.570312 492.683594 94.042969 492.617188 C 98.6875 491.949219 101.433594 489.082031 102.230469 484.085938 Z M 88.15625 485.078125 C 87.976562 484.554688 87.886719 484.019531 87.886719 483.472656 C 87.886719 482.921875 87.972656 482.386719 88.148438 481.863281 C 88.324219 481.34375 88.578125 480.863281 88.910156 480.425781 C 89.242188 479.988281 89.636719 479.613281 90.09375 479.304688 C 90.230469 479.210938 90.378906 479.121094 90.523438 479.035156 C 91.277344 478.582031 92.21875 478.019531 92.039062 476.683594 C 91.863281 475.347656 90.800781 474.96875 89.945312 474.65625 C 89.8125 474.605469 89.683594 474.558594 89.554688 474.507812 L 79.78125 470.640625 L 79.839844 470.484375 C 79.960938 470.144531 80.078125 469.824219 80.203125 469.507812 L 80.863281 467.839844 C 84.445312 458.824219 88.035156 449.8125 91.628906 440.800781 C 92.183594 439.414062 92.664062 439.191406 93.992188 439.714844 C 102.433594 443.058594 110.871094 446.40625 119.308594 449.761719 L 123.519531 451.433594 C 123.628906 451.476562 123.734375 451.53125 123.875 451.597656 L 120.886719 459.132812 C 116.847656 456.3125 112.9375 456.285156 109.269531 459.046875 C 108.566406 459.546875 107.953125 460.136719 107.429688 460.820312 C 106.902344 461.503906 106.492188 462.25 106.191406 463.058594 C 105.890625 463.867188 105.714844 464.699219 105.667969 465.558594 C 105.617188 466.421875 105.695312 467.269531 105.898438 468.105469 C 106.800781 472.382812 109.632812 474.902344 114.328125 475.605469 L 111.328125 483.164062 L 101.535156 479.285156 C 101.457031 479.253906 101.382812 479.21875 101.3125 479.175781 C 101.085938 479.042969 100.84375 478.96875 100.582031 478.945312 C 100.425781 478.945312 100.253906 478.945312 100.085938 478.945312 C 99.417969 478.84375 98.792969 478.964844 98.214844 479.308594 C 97.691406 479.742188 97.679688 480.695312 97.671875 481.460938 L 97.671875 481.597656 C 97.671875 482.027344 97.707031 482.453125 97.769531 482.875 C 97.863281 483.398438 97.882812 483.925781 97.832031 484.453125 C 97.738281 484.996094 97.558594 485.503906 97.292969 485.984375 C 97.027344 486.464844 96.691406 486.890625 96.28125 487.257812 C 95.871094 487.621094 95.414062 487.910156 94.910156 488.125 C 94.402344 488.335938 93.875 488.457031 93.328125 488.492188 C 92.765625 488.539062 92.214844 488.492188 91.671875 488.351562 C 91.128906 488.210938 90.621094 487.984375 90.152344 487.675781 C 89.683594 487.367188 89.277344 486.988281 88.933594 486.542969 C 88.59375 486.097656 88.332031 485.609375 88.15625 485.078125 Z M 88.15625 485.078125 "/></g><path style=" stroke:none;fill-rule:nonzero;fill:#000000;fill-opacity:1;" d="M 516.445312 289.226562 C 516.445312 278.550781 525.125 269.871094 535.800781 269.871094 C 546.472656 269.871094 555.152344 278.550781 555.152344 289.226562 C 555.152344 299.898438 546.472656 308.578125 535.800781 308.578125 C 525.125 308.578125 516.445312 299.898438 516.445312 289.226562 Z M 559.023438 289.226562 C 559.023438 276.417969 548.605469 266 535.800781 266 C 522.992188 266 512.574219 276.417969 512.574219 289.226562 C 512.574219 302.03125 522.992188 312.449219 535.800781 312.449219 C 548.605469 312.449219 559.023438 302.03125 559.023438 289.226562 "/><g clip-rule="nonzero" clip-path="url(#e7f6f7dadf)"><path style=" stroke:none;fill-rule:nonzero;fill:#000000;fill-opacity:1;" d="M 541.605469 345.355469 C 541.605469 348.558594 539.003906 351.160156 535.800781 351.160156 C 532.59375 351.160156 529.992188 348.558594 529.992188 345.355469 L 529.992188 329.871094 C 529.992188 328.804688 530.863281 327.933594 531.929688 327.933594 L 539.667969 327.933594 C 540.734375 327.933594 541.605469 328.804688 541.605469 329.871094 Z M 535.800781 320.191406 C 537.113281 320.191406 538.398438 320.085938 539.667969 319.921875 L 539.667969 322.128906 C 539.667969 323.195312 538.800781 324.0625 537.734375 324.0625 L 533.863281 324.0625 C 532.796875 324.0625 531.929688 323.195312 531.929688 322.128906 L 531.929688 319.921875 C 533.199219 320.085938 534.484375 320.191406 535.800781 320.191406 Z M 508.703125 289.226562 C 508.703125 274.285156 520.859375 262.128906 535.800781 262.128906 C 550.738281 262.128906 562.894531 274.285156 562.894531 289.226562 C 562.894531 304.164062 550.738281 316.320312 535.800781 316.320312 C 520.859375 316.320312 508.703125 304.164062 508.703125 289.226562 Z M 493.21875 289.226562 L 493.21875 300.253906 C 493.21875 300.769531 492.433594 301.011719 492.144531 300.574219 L 484.578125 289.226562 L 456.445312 289.226562 C 453.238281 289.226562 450.636719 286.625 450.636719 283.417969 L 450.636719 244.707031 C 450.636719 241.503906 453.238281 238.902344 456.445312 238.902344 L 526.121094 238.902344 C 529.328125 238.902344 531.929688 241.503906 531.929688 244.707031 L 531.929688 258.527344 C 524.246094 259.488281 517.449219 263.277344 512.574219 268.8125 L 512.574219 256.320312 C 512.574219 253.117188 515.175781 250.515625 518.378906 250.515625 C 521.585938 250.515625 524.1875 253.117188 524.1875 256.320312 L 528.058594 256.320312 C 528.058594 250.984375 523.71875 246.644531 518.378906 246.644531 C 513.042969 246.644531 508.703125 250.984375 508.703125 256.320312 L 508.703125 271.804688 C 508.703125 272.5 508.800781 273.1875 508.953125 273.863281 C 506.34375 278.398438 504.832031 283.628906 504.832031 289.226562 Z M 543.539062 319.171875 C 556.878906 315.722656 566.765625 303.621094 566.765625 289.226562 C 566.765625 272.144531 552.878906 258.257812 535.800781 258.257812 L 535.800781 244.707031 C 535.800781 239.371094 531.460938 235.03125 526.121094 235.03125 L 456.445312 235.03125 C 451.105469 235.03125 446.765625 239.371094 446.765625 244.707031 L 446.765625 283.417969 C 446.765625 288.757812 451.105469 293.09375 456.445312 293.09375 L 482.503906 293.09375 L 488.925781 302.71875 C 489.753906 303.96875 491.140625 304.707031 492.636719 304.707031 C 495.09375 304.707031 497.089844 302.710938 497.089844 300.253906 L 497.089844 293.09375 L 505.101562 293.09375 C 506.691406 305.75 515.9375 316.035156 528.058594 319.171875 L 528.058594 322.128906 C 528.058594 323.164062 528.351562 324.132812 528.835938 324.96875 C 527.210938 326.007812 526.121094 327.804688 526.121094 329.871094 L 526.121094 345.355469 C 526.121094 350.691406 530.460938 355.03125 535.800781 355.03125 C 541.136719 355.03125 545.476562 350.691406 545.476562 345.355469 L 545.476562 329.871094 C 545.476562 327.804688 544.386719 326.007812 542.761719 324.96875 C 543.246094 324.132812 543.539062 323.164062 543.539062 322.128906 L 543.539062 319.171875 "/></g><path style=" stroke:none;fill-rule:nonzero;fill:#000000;fill-opacity:1;" d="M 491.28125 262.128906 L 485.476562 262.128906 L 485.476562 250.515625 L 491.28125 250.515625 C 494.488281 250.515625 497.089844 253.117188 497.089844 256.320312 C 497.089844 259.527344 494.488281 262.128906 491.28125 262.128906 Z M 497.089844 271.804688 C 497.089844 275.011719 494.488281 277.613281 491.28125 277.613281 L 485.476562 277.613281 L 485.476562 266 L 491.28125 266 C 494.488281 266 497.089844 268.601562 497.089844 271.804688 Z M 500.960938 256.320312 C 500.960938 250.984375 496.621094 246.644531 491.28125 246.644531 L 481.605469 246.644531 L 481.605469 281.484375 L 491.28125 281.484375 C 496.621094 281.484375 500.960938 277.144531 500.960938 271.804688 C 500.960938 268.644531 499.433594 265.832031 497.082031 264.0625 C 499.433594 262.292969 500.960938 259.480469 500.960938 256.320312 "/><path style=" stroke:none;fill-rule:nonzero;fill:#000000;fill-opacity:1;" d="M 458.378906 266 L 458.378906 256.320312 C 458.378906 253.117188 460.980469 250.515625 464.1875 250.515625 C 467.390625 250.515625 469.992188 253.117188 469.992188 256.320312 L 469.992188 266 Z M 464.1875 246.644531 C 458.847656 246.644531 454.507812 250.984375 454.507812 256.320312 L 454.507812 281.484375 L 458.378906 281.484375 L 458.378906 269.871094 L 469.992188 269.871094 L 469.992188 281.484375 L 473.863281 281.484375 L 473.863281 256.320312 C 473.863281 250.984375 469.523438 246.644531 464.1875 246.644531 "/><path style=" stroke:none;fill-rule:nonzero;fill:#000000;fill-opacity:1;" d="M 546.042969 278.179688 L 529.992188 294.230469 L 525.554688 289.792969 L 522.816406 292.527344 L 529.992188 299.703125 L 548.78125 280.914062 L 546.042969 278.179688 "/><g clip-rule="nonzero" clip-path="url(#2618ffb5df)"><path style=" stroke:none;fill-rule:nonzero;fill:#000000;fill-opacity:1;" d="M 105.152344 223.421875 C 65.648438 223.421875 33.527344 255.542969 33.527344 295.046875 C 33.527344 334.554688 65.648438 366.671875 105.152344 366.671875 C 144.660156 366.671875 176.777344 334.554688 176.777344 295.046875 C 176.777344 255.542969 144.660156 223.421875 105.152344 223.421875 Z M 105.152344 362.195312 C 68.109375 362.195312 38.003906 332.089844 38.003906 295.046875 C 38.003906 258.003906 68.109375 227.898438 105.152344 227.898438 C 142.199219 227.898438 172.300781 258.003906 172.300781 295.046875 C 172.300781 332.089844 142.199219 362.195312 105.152344 362.195312 Z M 105.152344 362.195312 "/></g><path style=" stroke:none;fill-rule:nonzero;fill:#000000;fill-opacity:1;" d="M 123.058594 326.71875 C 121.382812 325.710938 119.703125 324.816406 118.246094 323.921875 C 111.308594 319.890625 105.824219 316.757812 99.671875 317.542969 C 95.640625 318.101562 88.480469 323.363281 87.136719 324.367188 C 86.128906 325.152344 85.90625 326.496094 86.6875 327.503906 C 87.472656 328.507812 88.8125 328.734375 89.820312 327.949219 C 92.957031 325.601562 98.214844 322.242188 100.339844 322.019531 C 105.042969 321.347656 109.628906 324.03125 116.121094 327.839844 C 117.6875 328.734375 119.253906 329.628906 121.046875 330.636719 C 121.382812 330.859375 121.71875 330.972656 122.164062 330.972656 C 122.949219 330.972656 123.730469 330.523438 124.066406 329.851562 C 124.515625 328.621094 124.066406 327.277344 123.058594 326.71875 Z M 123.058594 326.71875 "/><path style=" stroke:none;fill-rule:nonzero;fill:#000000;fill-opacity:1;" d="M 93.960938 284.976562 C 93.960938 278.148438 88.480469 272.664062 81.652344 272.664062 C 74.824219 272.664062 69.339844 278.148438 69.339844 284.976562 C 69.339844 291.800781 74.824219 297.285156 81.652344 297.285156 C 88.480469 297.285156 93.960938 291.800781 93.960938 284.976562 Z M 81.652344 292.808594 C 77.289062 292.808594 73.816406 289.339844 73.816406 284.976562 C 73.816406 284.191406 73.929688 283.519531 74.152344 282.738281 C 74.824219 284.640625 76.726562 286.09375 78.855469 286.09375 C 81.652344 286.09375 83.890625 283.855469 83.890625 281.058594 C 83.890625 279.492188 83.105469 278.035156 81.988281 277.140625 C 86.128906 277.363281 89.484375 280.722656 89.484375 284.976562 C 89.484375 289.339844 86.015625 292.808594 81.652344 292.808594 Z M 81.652344 292.808594 "/><path style=" stroke:none;fill-rule:nonzero;fill:#000000;fill-opacity:1;" d="M 86.574219 259.90625 C 85.679688 259.011719 84.335938 259.011719 83.441406 259.792969 C 74.601562 268.1875 62.960938 266.957031 62.851562 266.957031 C 61.621094 266.84375 60.5 267.628906 60.386719 268.859375 C 60.277344 270.089844 61.058594 271.210938 62.289062 271.320312 C 62.402344 271.320312 63.410156 271.433594 64.863281 271.433594 C 69.339844 271.433594 78.742188 270.425781 86.464844 262.929688 C 87.472656 262.257812 87.472656 260.800781 86.574219 259.90625 Z M 86.574219 259.90625 "/><path style=" stroke:none;fill-rule:nonzero;fill:#000000;fill-opacity:1;" d="M 127.535156 272.664062 C 120.710938 272.664062 115.226562 278.148438 115.226562 284.976562 C 115.226562 291.800781 120.710938 297.285156 127.535156 297.285156 C 134.363281 297.285156 139.847656 291.800781 139.847656 284.976562 C 139.847656 278.148438 134.363281 272.664062 127.535156 272.664062 Z M 127.535156 292.808594 C 123.171875 292.808594 119.703125 289.339844 119.703125 284.976562 C 119.703125 280.722656 123.058594 277.363281 127.199219 277.140625 C 126.082031 278.035156 125.296875 279.492188 125.296875 281.058594 C 125.296875 283.855469 127.535156 286.09375 130.335938 286.09375 C 132.460938 286.09375 134.363281 284.75 135.035156 282.738281 C 135.257812 283.410156 135.371094 284.191406 135.371094 284.976562 C 135.371094 289.339844 131.902344 292.808594 127.535156 292.808594 Z M 127.535156 292.808594 "/><path style=" stroke:none;fill-rule:nonzero;fill:#000000;fill-opacity:1;" d="M 146.339844 266.398438 C 146.226562 266.398438 134.585938 267.742188 125.746094 259.683594 C 124.851562 258.898438 123.394531 258.898438 122.613281 259.90625 C 121.828125 260.800781 121.828125 262.257812 122.835938 263.039062 C 130.671875 269.980469 139.960938 270.984375 144.4375 270.984375 C 145.890625 270.984375 146.898438 270.875 147.007812 270.875 C 148.242188 270.761719 149.136719 269.644531 148.914062 268.410156 C 148.6875 267.070312 147.570312 266.171875 146.339844 266.398438 Z M 146.339844 266.398438 "/><g clip-rule="nonzero" clip-path="url(#61556162e4)"><path style=" stroke:none;fill-rule:nonzero;fill:#000000;fill-opacity:1;" d="M 252.421875 208.324219 C 250.628906 208.402344 248.738281 208.75 246.757812 209.367188 C 241.152344 211.015625 237.191406 214.3125 234.882812 218.601562 C 232.574219 222.890625 232.25 227.835938 233.898438 233.445312 L 241.152344 231.464844 C 240.164062 228.167969 239.835938 225.199219 240.496094 223.21875 C 241.15625 219.589844 243.789062 216.949219 248.078125 215.628906 C 251.707031 214.640625 255.011719 214.972656 256.988281 216.292969 C 258.96875 217.613281 260.285156 219.589844 261.273438 221.898438 C 261.933594 223.878906 261.933594 225.859375 261.273438 227.839844 C 260.945312 229.160156 260.285156 230.148438 259.625 231.464844 L 257.316406 235.421875 C 255.007812 239.050781 254.019531 242.351562 253.691406 244.992188 C 253.359375 247.628906 254.015625 250.929688 255.003906 254.558594 L 261.601562 252.25 C 260.613281 248.953125 260.289062 246.3125 260.617188 244.332031 C 260.945312 242.355469 261.9375 240.042969 263.914062 236.742188 C 266.554688 232.457031 268.203125 229.15625 268.863281 227.175781 C 269.523438 225.195312 269.195312 222.558594 268.535156 219.921875 C 267.214844 215.304688 264.574219 212.003906 260.617188 210.023438 C 258.144531 208.789062 255.410156 208.191406 252.421875 208.324219 Z M 315.375 214.972656 C 301.574219 214.972656 288.808594 218.777344 277.511719 224.941406 C 277.117188 225.144531 276.777344 225.417969 276.492188 225.757812 C 276.207031 226.097656 276 226.480469 275.871094 226.90625 C 275.742188 227.328125 275.699219 227.761719 275.746094 228.203125 C 275.789062 228.644531 275.917969 229.058594 276.128906 229.449219 C 276.34375 229.839844 276.621094 230.171875 276.96875 230.449219 C 277.316406 230.726562 277.703125 230.925781 278.128906 231.042969 C 278.554688 231.164062 278.988281 231.199219 279.429688 231.144531 C 279.871094 231.089844 280.28125 230.953125 280.667969 230.730469 C 291.140625 225.019531 302.785156 221.570312 315.375 221.570312 C 353.851562 221.570312 384.648438 252.367188 384.648438 290.84375 C 384.648438 329.324219 353.851562 360.117188 315.375 360.117188 C 276.898438 360.117188 246.101562 329.324219 246.101562 290.84375 C 246.101562 282.34375 247.671875 274.160156 250.507812 266.601562 C 250.667969 266.1875 250.746094 265.761719 250.734375 265.320312 C 250.722656 264.878906 250.628906 264.457031 250.449219 264.054688 C 250.269531 263.648438 250.015625 263.296875 249.695312 262.996094 C 249.375 262.691406 249.007812 262.464844 248.59375 262.308594 C 248.179688 262.152344 247.75 262.085938 247.308594 262.101562 C 246.867188 262.117188 246.449219 262.21875 246.046875 262.40625 C 245.644531 262.589844 245.296875 262.847656 245 263.171875 C 244.703125 263.5 244.476562 263.871094 244.328125 264.285156 C 241.226562 272.5625 239.503906 281.53125 239.503906 290.84375 C 239.503906 332.855469 273.363281 366.714844 315.375 366.714844 C 357.386719 366.714844 391.246094 332.855469 391.246094 290.84375 C 391.246094 248.832031 357.386719 214.972656 315.375 214.972656 Z M 295.582031 238.0625 C 286.5625 238.0625 280.660156 244.003906 277.136719 248.585938 C 276.859375 248.929688 276.660156 249.316406 276.535156 249.742188 C 276.414062 250.167969 276.378906 250.601562 276.433594 251.042969 C 276.484375 251.484375 276.621094 251.894531 276.839844 252.28125 C 277.058594 252.667969 277.34375 252.996094 277.695312 253.265625 C 278.046875 253.535156 278.433594 253.726562 278.863281 253.839844 C 279.292969 253.957031 279.726562 253.980469 280.164062 253.917969 C 280.605469 253.859375 281.015625 253.714844 281.394531 253.488281 C 281.777344 253.261719 282.097656 252.96875 282.363281 252.613281 C 285.4375 248.617188 289.429688 244.660156 295.582031 244.660156 C 301.082031 244.660156 303.589844 247.105469 303.589844 247.105469 C 303.914062 247.398438 304.28125 247.617188 304.695312 247.765625 C 305.105469 247.914062 305.53125 247.976562 305.96875 247.957031 C 306.402344 247.9375 306.820312 247.832031 307.214844 247.644531 C 307.613281 247.457031 307.957031 247.203125 308.25 246.878906 C 308.546875 246.554688 308.765625 246.1875 308.914062 245.777344 C 309.0625 245.367188 309.125 244.941406 309.105469 244.503906 C 309.085938 244.066406 308.980469 243.652344 308.792969 243.253906 C 308.609375 242.859375 308.355469 242.515625 308.03125 242.21875 C 308.03125 242.21875 303.28125 238.0625 295.582031 238.0625 Z M 335.167969 241.363281 C 327.46875 241.363281 322.71875 245.519531 322.71875 245.519531 C 322.394531 245.8125 322.140625 246.15625 321.953125 246.554688 C 321.769531 246.949219 321.664062 247.367188 321.644531 247.804688 C 321.621094 248.242188 321.6875 248.664062 321.835938 249.078125 C 321.980469 249.488281 322.203125 249.855469 322.496094 250.179688 C 322.792969 250.503906 323.136719 250.757812 323.53125 250.945312 C 323.929688 251.132812 324.34375 251.234375 324.78125 251.257812 C 325.21875 251.277344 325.644531 251.214844 326.054688 251.066406 C 326.46875 250.917969 326.835938 250.695312 327.160156 250.402344 C 327.160156 250.402344 329.667969 247.960938 335.167969 247.960938 C 341.320312 247.960938 345.3125 251.914062 348.386719 255.910156 C 348.652344 256.269531 348.972656 256.558594 349.355469 256.785156 C 349.734375 257.011719 350.144531 257.15625 350.585938 257.21875 C 351.023438 257.28125 351.457031 257.253906 351.886719 257.140625 C 352.316406 257.027344 352.703125 256.835938 353.054688 256.5625 C 353.40625 256.292969 353.691406 255.964844 353.910156 255.578125 C 354.128906 255.195312 354.265625 254.78125 354.316406 254.339844 C 354.371094 253.902344 354.335938 253.46875 354.214844 253.042969 C 354.089844 252.617188 353.890625 252.230469 353.613281 251.882812 C 350.089844 247.304688 344.1875 241.363281 335.167969 241.363281 Z M 264.574219 258.847656 L 256.65625 261.15625 L 258.96875 269.402344 L 266.886719 267.097656 Z M 292.285156 261.15625 C 287.664062 261.15625 284.035156 267.09375 284.035156 274.351562 C 284.035156 281.609375 287.664062 287.546875 292.285156 287.546875 C 296.902344 287.546875 300.53125 281.609375 300.53125 274.351562 C 300.53125 267.09375 296.902344 261.15625 292.285156 261.15625 Z M 338.464844 261.15625 C 333.847656 261.15625 330.21875 267.09375 330.21875 274.351562 C 330.21875 281.609375 333.847656 287.546875 338.464844 287.546875 C 343.085938 287.546875 346.714844 281.609375 346.714844 274.351562 C 346.714844 267.09375 343.085938 261.15625 338.464844 261.15625 Z M 341.765625 313.9375 C 321.902344 313.9375 308.828125 319.070312 300.742188 324.375 C 292.660156 329.675781 289.390625 335.433594 289.390625 335.433594 C 289.179688 335.820312 289.050781 336.230469 289.003906 336.664062 C 288.953125 337.097656 288.992188 337.527344 289.113281 337.945312 C 289.234375 338.367188 289.433594 338.75 289.707031 339.089844 C 289.980469 339.433594 290.308594 339.707031 290.691406 339.917969 C 291.074219 340.128906 291.484375 340.261719 291.921875 340.308594 C 292.355469 340.355469 292.785156 340.320312 293.203125 340.199219 C 293.625 340.074219 294.003906 339.878906 294.347656 339.605469 C 294.6875 339.332031 294.964844 339 295.175781 338.617188 C 295.175781 338.617188 297.351562 334.484375 304.359375 329.886719 C 311.363281 325.292969 323.03125 320.53125 341.765625 320.53125 C 342.207031 320.539062 342.632812 320.460938 343.042969 320.296875 C 343.453125 320.132812 343.8125 319.894531 344.128906 319.582031 C 344.441406 319.273438 344.683594 318.914062 344.855469 318.507812 C 345.027344 318.101562 345.109375 317.675781 345.109375 317.234375 C 345.109375 316.792969 345.027344 316.367188 344.855469 315.960938 C 344.683594 315.554688 344.441406 315.195312 344.128906 314.886719 C 343.8125 314.574219 343.453125 314.335938 343.042969 314.171875 C 342.632812 314.007812 342.207031 313.929688 341.765625 313.9375 Z M 341.765625 313.9375 "/></g></g></svg>